<svg xmlns="http://www.w3.org/2000/svg" xmlns:xlink="http://www.w3.org/1999/xlink" width="500" zoomAndPan="magnify" viewBox="0 0 375 374.999991" height="500" preserveAspectRatio="xMidYMid meet" version="1.0"><defs><g/><clipPath id="85a968ffaf"><path d="M 138 74.234375 L 144 74.234375 L 144 80 L 138 80 Z M 138 74.234375 " clip-rule="nonzero"/></clipPath><clipPath id="e0d8f4ad21"><path d="M 97.917969 114 L 104 114 L 104 120 L 97.917969 120 Z M 97.917969 114 " clip-rule="nonzero"/></clipPath><clipPath id="ce8984ec9e"><path d="M 185 74.234375 L 192 74.234375 L 192 80 L 185 80 Z M 185 74.234375 " clip-rule="nonzero"/></clipPath><clipPath id="258c4a5577"><path d="M 226 114 L 231.417969 114 L 231.417969 120 L 226 120 Z M 226 114 " clip-rule="nonzero"/></clipPath><clipPath id="9f718bb11c"><path d="M 138 241 L 144 241 L 144 246.734375 L 138 246.734375 Z M 138 241 " clip-rule="nonzero"/></clipPath><clipPath id="a106df8b21"><path d="M 97.917969 201 L 104 201 L 104 207 L 97.917969 207 Z M 97.917969 201 " clip-rule="nonzero"/></clipPath><clipPath id="0de431763b"><path d="M 185 241 L 192 241 L 192 246.734375 L 185 246.734375 Z M 185 241 " clip-rule="nonzero"/></clipPath><clipPath id="dcfe3eeb3e"><path d="M 226 201 L 231.417969 201 L 231.417969 207 L 226 207 Z M 226 201 " clip-rule="nonzero"/></clipPath><clipPath id="94fda13f92"><path d="M 144.332031 75.691406 L 277.082031 75.691406 L 277.082031 245.941406 L 144.332031 245.941406 Z M 144.332031 75.691406 " clip-rule="nonzero"/></clipPath><clipPath id="902155c98e"><path d="M 164 81 L 277.082031 81 L 277.082031 241 L 164 241 Z M 164 81 " clip-rule="nonzero"/></clipPath><clipPath id="042bd5c1bb"><path d="M 199 85 L 277.082031 85 L 277.082031 135 L 199 135 Z M 199 85 " clip-rule="nonzero"/></clipPath><clipPath id="594fe0714b"><path d="M 247 122 L 277.082031 122 L 277.082031 132 L 247 132 Z M 247 122 " clip-rule="nonzero"/></clipPath><clipPath id="129fc11ec8"><path d="M 210 234 L 256 234 L 256 245.941406 L 210 245.941406 Z M 210 234 " clip-rule="nonzero"/></clipPath><clipPath id="7a63d86a90"><path d="M 186.398438 92 L 187.617188 92 L 187.617188 95.902344 L 186.398438 95.902344 Z M 186.398438 92 " clip-rule="nonzero"/></clipPath><clipPath id="219bf84878"><path d="M 186.945312 92.054688 C 186.644531 92.5 186.46875 93.039062 186.46875 93.617188 C 186.46875 94.535156 186.90625 95.347656 187.582031 95.859375 L 186.945312 92.054688 " clip-rule="nonzero"/></clipPath></defs><rect x="-37.5" width="450" fill="#ffffff" y="-37.499999" height="449.999989" fill-opacity="1"/><rect x="-37.5" width="450" fill="#ffffff" y="-37.499999" height="449.999989" fill-opacity="1"/><path fill="#16344f" d="M 229.730469 204.566406 L 229.730469 245.574219 L 230.148438 245.574219 L 230.148438 204.566406 L 229.730469 204.566406 " fill-opacity="1" fill-rule="nonzero"/><path fill="#16344f" d="M 229.941406 245.367188 L 188.921875 245.367188 L 188.921875 245.785156 L 229.941406 245.785156 L 229.941406 245.367188 " fill-opacity="1" fill-rule="nonzero"/><path fill="#16344f" d="M 100.359375 244.042969 L 100.769531 244.042969 L 100.769531 203.773438 L 100.359375 203.773438 Z M 100.359375 244.042969 " fill-opacity="1" fill-rule="nonzero"/><path fill="#16344f" d="M 100.5625 244.246094 L 140.84375 244.246094 L 140.84375 243.839844 L 100.5625 243.839844 Z M 100.5625 244.246094 " fill-opacity="1" fill-rule="nonzero"/><path fill="#16344f" d="M 100.769531 117.195312 L 100.769531 76.925781 L 100.359375 76.925781 L 100.359375 117.195312 L 100.769531 117.195312 " fill-opacity="1" fill-rule="nonzero"/><path fill="#16344f" d="M 100.5625 77.128906 L 140.84375 77.128906 L 140.84375 76.722656 L 100.5625 76.722656 L 100.5625 77.128906 " fill-opacity="1" fill-rule="nonzero"/><path fill="#16344f" d="M 228.96875 117.195312 L 228.96875 76.925781 L 228.558594 76.925781 L 228.558594 117.195312 L 228.96875 117.195312 " fill-opacity="1" fill-rule="nonzero"/><path fill="#16344f" d="M 228.765625 76.722656 L 188.484375 76.722656 L 188.484375 77.128906 L 228.765625 77.128906 L 228.765625 76.722656 " fill-opacity="1" fill-rule="nonzero"/><path fill="#62cce5" d="M 216.632812 114.902344 L 215.6875 159.3125 C 215.6875 159.3125 214.363281 180.480469 214.175781 181.046875 C 213.984375 181.613281 194.140625 221.867188 194.140625 221.867188 L 176.382812 233.414062 L 173.585938 235.234375 L 170.890625 236.984375 L 158.792969 236.984375 L 153.246094 233.378906 L 135.542969 221.867188 C 135.542969 221.867188 115.691406 181.613281 115.503906 181.046875 C 115.316406 180.480469 113.996094 159.3125 113.996094 159.3125 L 113.046875 114.902344 L 135.199219 89.566406 L 135.164062 89.390625 L 194.519531 89.390625 L 194.480469 89.5625 L 216.632812 114.902344 " fill-opacity="1" fill-rule="nonzero"/><path fill="#4a9bdb" d="M 164.917969 213.726562 L 151.71875 211.753906 L 164.953125 219.316406 L 178.121094 211.753906 L 164.917969 213.726562 " fill-opacity="1" fill-rule="nonzero"/><path fill="#4a9bdb" d="M 169.976562 195.25 L 186.074219 203.28125 L 171.773438 202.210938 Z M 169.976562 195.25 " fill-opacity="1" fill-rule="nonzero"/><path fill="#4a9bdb" d="M 159.863281 195.25 L 143.585938 203.28125 L 157.886719 202.210938 Z M 159.863281 195.25 " fill-opacity="1" fill-rule="nonzero"/><path fill="#4a9bdb" d="M 169.292969 162.90625 C 169.292969 163.09375 171.140625 184.824219 171.140625 184.824219 L 179.082031 183.1875 L 173.851562 177.832031 L 169.292969 162.90625 " fill-opacity="1" fill-rule="nonzero"/><path fill="#4a9bdb" d="M 160.523438 162.90625 C 160.523438 163.09375 158.675781 184.824219 158.675781 184.824219 L 150.734375 183.1875 L 155.964844 177.832031 L 160.523438 162.90625 " fill-opacity="1" fill-rule="nonzero"/><path fill="#4a9bdb" d="M 164.816406 194.839844 L 177.03125 187.472656 C 177.03125 187.472656 179.144531 184.953125 179.082031 183.1875 L 164.839844 187.15625 L 164.816406 194.839844 " fill-opacity="1" fill-rule="nonzero"/><path fill="#4a9bdb" d="M 164.839844 194.839844 L 152.625 187.472656 C 152.625 187.472656 150.515625 184.953125 150.578125 183.1875 L 164.816406 187.15625 L 164.839844 194.839844 " fill-opacity="1" fill-rule="nonzero"/><path fill="#4a9bdb" d="M 216.632812 114.902344 L 215.6875 159.3125 C 215.6875 159.3125 214.363281 180.480469 214.175781 181.046875 C 213.984375 181.613281 194.140625 221.867188 194.140625 221.867188 L 176.382812 233.414062 L 173.585938 235.234375 L 173.726562 231.125 L 195.085938 211.46875 L 198.65625 188.511719 L 167.769531 149.855469 L 181.285156 148.164062 L 196.269531 146.046875 L 200.769531 111.339844 L 191.839844 91.847656 C 191.839844 91.847656 192.808594 90.570312 193.691406 89.390625 L 194.519531 89.390625 L 194.480469 89.5625 L 216.632812 114.902344 " fill-opacity="1" fill-rule="nonzero"/><path fill="#4a9bdb" d="M 113.0625 114.9375 L 114.007812 159.347656 C 114.007812 159.347656 115.332031 180.511719 115.523438 181.078125 C 115.710938 181.644531 135.554688 221.898438 135.554688 221.898438 L 153.3125 233.445312 L 156.113281 235.265625 L 155.972656 231.15625 L 134.613281 211.503906 L 131.039062 188.542969 L 161.925781 149.886719 L 148.414062 148.195312 L 133.425781 146.078125 L 128.925781 111.371094 L 137.859375 91.878906 C 137.859375 91.878906 136.886719 90.601562 136.003906 89.421875 L 135.179688 89.421875 L 135.214844 89.597656 L 113.0625 114.9375 " fill-opacity="1" fill-rule="nonzero"/><path fill="#8edaf1" d="M 164.839844 195.992188 L 167.890625 194.839844 L 169.816406 200.355469 L 164.839844 202.144531 L 164.839844 195.992188 " fill-opacity="1" fill-rule="nonzero"/><path fill="#8edaf1" d="M 164.839844 195.992188 L 161.789062 194.839844 L 159.863281 200.355469 L 164.839844 202.144531 L 164.839844 195.992188 " fill-opacity="1" fill-rule="nonzero"/><path fill="#8edaf1" d="M 163.515625 99.027344 L 128.800781 110.492188 L 130.4375 132.667969 L 158.917969 142.242188 L 165.375 144.988281 L 171.324219 142.039062 L 199.195312 132.667969 L 200.832031 110.492188 L 163.515625 99.027344 " fill-opacity="1" fill-rule="nonzero"/><path fill="#8edaf1" d="M 149.058594 203.914062 L 147.640625 205.078125 L 155.578125 207.882812 L 164.839844 209.675781 L 174.007812 207.785156 L 182.042969 205.078125 L 175.457031 203 L 168.148438 203 L 149.058594 203.914062 " fill-opacity="1" fill-rule="nonzero"/><path fill="#8edaf1" d="M 171.773438 183.691406 L 167.769531 150.148438 L 162.234375 150.148438 L 157.910156 183.691406 L 163.894531 188.511719 L 171.773438 183.691406 " fill-opacity="1" fill-rule="nonzero"/><path fill="#2c66a6" d="M 173.914062 139.621094 L 172.421875 139.621094 L 167.769531 149.855469 L 189.414062 157.421875 C 189.414062 157.421875 194.777344 158.652344 200.917969 155.503906 L 211.46875 155.816406 L 215.910156 148.640625 L 208.128906 138.820312 L 196.847656 134.429688 L 173.914062 139.621094 " fill-opacity="1" fill-rule="nonzero"/><path fill="#2c66a6" d="M 156.089844 139.621094 L 157.582031 139.621094 L 162.234375 149.855469 L 140.589844 157.421875 C 140.589844 157.421875 135.226562 158.652344 129.085938 155.503906 L 118.539062 155.816406 L 114.09375 148.640625 L 121.875 138.820312 L 133.15625 134.429688 L 156.089844 139.621094 " fill-opacity="1" fill-rule="nonzero"/><path fill="#16344f" d="M 203.589844 154.398438 C 203.589844 154.398438 198.863281 157.863281 192.4375 157.863281 C 186.011719 157.863281 182.042969 153.265625 182.042969 153.265625 C 183.378906 152.226562 185.195312 151.527344 187.144531 151.058594 L 187.144531 151.054688 C 189.949219 150.375 193.035156 150.179688 195.386719 150.148438 C 197.652344 150.117188 199.242188 150.242188 199.242188 150.242188 L 203.589844 154.398438 " fill-opacity="1" fill-rule="nonzero"/><path fill="#16344f" d="M 126.375 154.398438 C 126.375 154.398438 131.101562 157.863281 137.527344 157.863281 C 143.953125 157.863281 147.921875 153.265625 147.921875 153.265625 C 146.585938 152.226562 144.773438 151.527344 142.820312 151.058594 L 142.820312 151.054688 C 140.015625 150.375 136.933594 150.179688 134.578125 150.148438 C 132.3125 150.117188 130.726562 150.242188 130.726562 150.242188 L 126.375 154.398438 " fill-opacity="1" fill-rule="nonzero"/><path fill="#16344f" d="M 171.773438 183.691406 L 164.839844 186.085938 L 157.910156 183.691406 L 150.601562 183.1875 C 150.601562 185.707031 153.371094 186.714844 153.371094 186.714844 L 158.289062 187.722656 L 164.839844 191.125 L 171.394531 187.722656 L 176.308594 186.714844 C 176.308594 186.714844 179.082031 185.707031 179.082031 183.1875 L 171.773438 183.691406 " fill-opacity="1" fill-rule="nonzero"/><path fill="#16344f" d="M 173.472656 200.257812 L 169.566406 200.257812 L 164.839844 201.898438 L 164.839844 205.738281 L 169.378906 204.417969 L 182.042969 205.078125 L 186.074219 203.28125 L 173.472656 200.257812 " fill-opacity="1" fill-rule="nonzero"/><path fill="#16344f" d="M 156.207031 200.257812 L 143.605469 203.28125 L 147.640625 205.078125 L 160.304688 204.417969 L 164.839844 205.738281 L 164.839844 201.898438 L 160.113281 200.257812 L 156.207031 200.257812 " fill-opacity="1" fill-rule="nonzero"/><path fill="#2c66a6" d="M 158.160156 212.730469 L 164.839844 213.425781 L 171.835938 212.730469 L 165 216.007812 L 158.160156 212.730469 " fill-opacity="1" fill-rule="nonzero"/><path fill="#16344f" d="M 171.644531 141.359375 L 178.261719 142.871094 L 199.335938 136.917969 L 209.261719 142.871094 L 208.128906 138.902344 L 199.527344 132.667969 L 173.347656 137.769531 L 171.644531 141.359375 " fill-opacity="1" fill-rule="nonzero"/><path fill="#16344f" d="M 158.320312 141.359375 L 151.703125 142.871094 L 130.625 136.917969 L 120.703125 142.871094 L 121.835938 138.902344 L 130.4375 132.667969 L 156.617188 137.769531 L 158.320312 141.359375 " fill-opacity="1" fill-rule="nonzero"/><path fill="#16344f" d="M 209.261719 173.109375 L 198.867188 187.15625 L 196.269531 203.914062 Z M 209.261719 173.109375 " fill-opacity="1" fill-rule="nonzero"/><path fill="#16344f" d="M 120.703125 173.109375 L 131.101562 187.15625 L 133.695312 203.914062 Z M 120.703125 173.109375 " fill-opacity="1" fill-rule="nonzero"/><path fill="#2c66a6" d="M 173.726562 231.125 L 164.839844 232.636719 L 155.769531 231.125 L 153.246094 233.378906 L 158.792969 236.984375 L 170.890625 236.984375 L 176.382812 233.414062 L 173.726562 231.125 " fill-opacity="1" fill-rule="nonzero"/><path fill="#62cce5" d="M 177.03125 157.660156 L 190.78125 172.082031 L 210.648438 166.863281 L 204.058594 162.273438 L 177.03125 157.660156 " fill-opacity="1" fill-rule="nonzero"/><path fill="#62cce5" d="M 153.484375 157.660156 L 139.734375 172.082031 L 119.871094 166.863281 L 126.457031 162.273438 L 153.484375 157.660156 " fill-opacity="1" fill-rule="nonzero"/><path fill="#8edaf1" d="M 183.910156 164.871094 L 190.78125 172.082031 L 203.589844 168.714844 L 192.816406 166.609375 L 183.910156 164.871094 " fill-opacity="1" fill-rule="nonzero"/><path fill="#8edaf1" d="M 146.519531 164.871094 L 139.644531 172.082031 L 126.835938 168.714844 L 137.609375 166.609375 L 146.519531 164.871094 " fill-opacity="1" fill-rule="nonzero"/><g clip-path="url(#85a968ffaf)"><path fill="#ccebbb" d="M 140.84375 74.277344 C 139.449219 74.277344 138.304688 75.355469 138.199219 76.722656 L 139.011719 76.722656 C 139.113281 75.800781 139.894531 75.082031 140.84375 75.082031 C 141.859375 75.082031 142.683594 75.910156 142.683594 76.925781 C 142.683594 77.941406 141.859375 78.769531 140.84375 78.769531 C 139.894531 78.769531 139.113281 78.050781 139.011719 77.128906 L 138.199219 77.128906 C 138.304688 78.496094 139.449219 79.574219 140.84375 79.574219 C 142.304688 79.574219 143.492188 78.390625 143.492188 76.925781 C 143.492188 75.464844 142.304688 74.277344 140.84375 74.277344 " fill-opacity="1" fill-rule="nonzero"/></g><path fill="#236c75" d="M 139.011719 76.722656 L 138.199219 76.722656 C 138.195312 76.789062 138.191406 76.859375 138.191406 76.925781 C 138.191406 76.996094 138.195312 77.0625 138.199219 77.128906 L 139.011719 77.128906 C 139.003906 77.0625 139 76.996094 139 76.925781 C 139 76.859375 139.003906 76.789062 139.011719 76.722656 " fill-opacity="1" fill-rule="nonzero"/><path fill="#9ad982" d="M 140.84375 75.085938 C 139.894531 75.085938 139.113281 75.800781 139.011719 76.722656 L 139.765625 76.722656 C 139.859375 76.214844 140.304688 75.832031 140.84375 75.832031 C 141.449219 75.832031 141.9375 76.324219 141.9375 76.925781 C 141.9375 77.53125 141.449219 78.023438 140.84375 78.023438 C 140.304688 78.023438 139.859375 77.640625 139.765625 77.132812 L 139.011719 77.132812 C 139.113281 78.050781 139.894531 78.769531 140.84375 78.769531 C 141.859375 78.769531 142.683594 77.945312 142.683594 76.925781 C 142.683594 75.910156 141.859375 75.085938 140.84375 75.085938 " fill-opacity="1" fill-rule="nonzero"/><path fill="#35ba9d" d="M 139.765625 76.722656 L 139.011719 76.722656 C 139.003906 76.789062 139 76.859375 139 76.925781 C 139 76.996094 139.003906 77.0625 139.011719 77.128906 L 139.765625 77.128906 C 139.753906 77.066406 139.746094 76.996094 139.746094 76.925781 C 139.746094 76.855469 139.753906 76.789062 139.765625 76.722656 " fill-opacity="1" fill-rule="nonzero"/><path fill="#ebf7e3" d="M 140.839844 75.832031 C 140.304688 75.832031 139.859375 76.214844 139.765625 76.722656 L 140.839844 76.722656 L 140.839844 77.132812 L 139.765625 77.132812 C 139.859375 77.640625 140.304688 78.023438 140.839844 78.023438 C 141.449219 78.023438 141.9375 77.53125 141.9375 76.925781 C 141.9375 76.324219 141.449219 75.832031 140.839844 75.832031 " fill-opacity="1" fill-rule="nonzero"/><path fill="#d7f1e7" d="M 140.84375 76.722656 L 139.765625 76.722656 C 139.753906 76.789062 139.746094 76.855469 139.746094 76.925781 C 139.746094 76.996094 139.753906 77.066406 139.765625 77.128906 L 140.84375 77.128906 L 140.84375 76.722656 " fill-opacity="1" fill-rule="nonzero"/><g clip-path="url(#e0d8f4ad21)"><path fill="#ccebbb" d="M 100.359375 114.554688 C 98.992188 114.660156 97.914062 115.800781 97.914062 117.195312 C 97.914062 118.65625 99.101562 119.84375 100.5625 119.84375 C 102.027344 119.84375 103.214844 118.65625 103.214844 117.195312 C 103.214844 115.800781 102.136719 114.660156 100.769531 114.554688 L 100.769531 115.363281 C 101.691406 115.464844 102.40625 116.246094 102.40625 117.195312 C 102.40625 118.210938 101.582031 119.039062 100.5625 119.039062 C 99.546875 119.039062 98.722656 118.210938 98.722656 117.195312 C 98.722656 116.246094 99.4375 115.464844 100.359375 115.363281 L 100.359375 114.554688 " fill-opacity="1" fill-rule="nonzero"/></g><path fill="#236c75" d="M 100.5625 114.546875 C 100.496094 114.546875 100.425781 114.550781 100.359375 114.554688 L 100.359375 115.363281 C 100.425781 115.355469 100.496094 115.351562 100.5625 115.351562 C 100.632812 115.351562 100.699219 115.355469 100.769531 115.363281 L 100.769531 114.554688 C 100.699219 114.550781 100.632812 114.546875 100.5625 114.546875 " fill-opacity="1" fill-rule="nonzero"/><path fill="#9ad982" d="M 100.769531 115.363281 L 100.769531 116.117188 C 101.277344 116.214844 101.660156 116.660156 101.660156 117.195312 C 101.660156 117.800781 101.167969 118.292969 100.5625 118.292969 C 99.957031 118.292969 99.46875 117.800781 99.46875 117.195312 C 99.46875 116.660156 99.851562 116.214844 100.359375 116.117188 L 100.359375 115.363281 C 99.4375 115.464844 98.722656 116.246094 98.722656 117.195312 C 98.722656 118.210938 99.546875 119.039062 100.5625 119.039062 C 101.582031 119.039062 102.40625 118.210938 102.40625 117.195312 C 102.40625 116.246094 101.691406 115.464844 100.769531 115.363281 " fill-opacity="1" fill-rule="nonzero"/><path fill="#35ba9d" d="M 100.5625 115.351562 C 100.496094 115.351562 100.425781 115.355469 100.359375 115.363281 L 100.359375 116.117188 C 100.425781 116.105469 100.492188 116.097656 100.5625 116.097656 C 100.632812 116.097656 100.703125 116.105469 100.769531 116.117188 L 100.769531 115.363281 C 100.699219 115.355469 100.632812 115.351562 100.5625 115.351562 " fill-opacity="1" fill-rule="nonzero"/><path fill="#ebf7e3" d="M 100.359375 116.117188 C 99.851562 116.214844 99.46875 116.660156 99.46875 117.195312 C 99.46875 117.800781 99.957031 118.292969 100.5625 118.292969 C 101.167969 118.292969 101.660156 117.800781 101.660156 117.195312 C 101.660156 116.660156 101.277344 116.214844 100.769531 116.117188 L 100.769531 117.195312 L 100.359375 117.195312 L 100.359375 116.117188 " fill-opacity="1" fill-rule="nonzero"/><path fill="#d7f1e7" d="M 100.5625 116.097656 C 100.492188 116.097656 100.425781 116.105469 100.359375 116.117188 L 100.359375 117.195312 L 100.769531 117.195312 L 100.769531 116.117188 C 100.703125 116.105469 100.632812 116.097656 100.5625 116.097656 " fill-opacity="1" fill-rule="nonzero"/><g clip-path="url(#ce8984ec9e)"><path fill="#ccebbb" d="M 188.488281 74.277344 C 187.023438 74.277344 185.835938 75.464844 185.835938 76.925781 C 185.835938 78.390625 187.023438 79.574219 188.488281 79.574219 C 189.878906 79.574219 191.023438 78.496094 191.128906 77.128906 L 190.316406 77.128906 C 190.21875 78.050781 189.433594 78.769531 188.488281 78.769531 C 187.46875 78.769531 186.644531 77.941406 186.644531 76.925781 C 186.644531 75.910156 187.46875 75.082031 188.488281 75.082031 C 189.433594 75.082031 190.21875 75.800781 190.316406 76.722656 L 191.128906 76.722656 C 191.023438 75.355469 189.878906 74.277344 188.488281 74.277344 " fill-opacity="1" fill-rule="nonzero"/></g><path fill="#236c75" d="M 191.128906 76.722656 L 190.316406 76.722656 C 190.324219 76.789062 190.328125 76.859375 190.328125 76.925781 C 190.328125 76.996094 190.324219 77.0625 190.316406 77.128906 L 191.128906 77.128906 C 191.132812 77.0625 191.132812 76.996094 191.132812 76.925781 C 191.132812 76.859375 191.132812 76.789062 191.128906 76.722656 " fill-opacity="1" fill-rule="nonzero"/><path fill="#9ad982" d="M 188.484375 75.085938 C 187.46875 75.085938 186.644531 75.910156 186.644531 76.925781 C 186.644531 77.945312 187.46875 78.769531 188.484375 78.769531 C 189.433594 78.769531 190.214844 78.050781 190.316406 77.132812 L 189.5625 77.132812 C 189.46875 77.640625 189.023438 78.023438 188.484375 78.023438 C 187.882812 78.023438 187.390625 77.53125 187.390625 76.925781 C 187.390625 76.324219 187.882812 75.832031 188.484375 75.832031 C 189.023438 75.832031 189.46875 76.214844 189.5625 76.722656 L 190.316406 76.722656 C 190.214844 75.800781 189.433594 75.085938 188.484375 75.085938 " fill-opacity="1" fill-rule="nonzero"/><path fill="#35ba9d" d="M 190.316406 76.722656 L 189.5625 76.722656 C 189.574219 76.789062 189.582031 76.855469 189.582031 76.925781 C 189.582031 76.996094 189.574219 77.066406 189.5625 77.128906 L 190.316406 77.128906 C 190.324219 77.0625 190.328125 76.996094 190.328125 76.925781 C 190.328125 76.859375 190.324219 76.789062 190.316406 76.722656 " fill-opacity="1" fill-rule="nonzero"/><path fill="#ebf7e3" d="M 188.484375 75.832031 C 187.878906 75.832031 187.390625 76.324219 187.390625 76.925781 C 187.390625 77.53125 187.878906 78.023438 188.484375 78.023438 C 189.019531 78.023438 189.464844 77.640625 189.5625 77.132812 L 188.484375 77.132812 L 188.484375 76.722656 L 189.5625 76.722656 C 189.464844 76.214844 189.019531 75.832031 188.484375 75.832031 " fill-opacity="1" fill-rule="nonzero"/><path fill="#d7f1e7" d="M 189.5625 76.722656 L 188.484375 76.722656 L 188.484375 77.128906 L 189.5625 77.128906 C 189.574219 77.066406 189.582031 76.996094 189.582031 76.925781 C 189.582031 76.855469 189.574219 76.789062 189.5625 76.722656 " fill-opacity="1" fill-rule="nonzero"/><g clip-path="url(#258c4a5577)"><path fill="#ccebbb" d="M 228.558594 114.554688 C 227.191406 114.660156 226.113281 115.800781 226.113281 117.195312 C 226.113281 118.65625 227.300781 119.84375 228.765625 119.84375 C 230.226562 119.84375 231.414062 118.65625 231.414062 117.195312 C 231.414062 115.800781 230.335938 114.660156 228.96875 114.554688 L 228.96875 115.363281 C 229.890625 115.464844 230.605469 116.246094 230.605469 117.195312 C 230.605469 118.214844 229.78125 119.039062 228.765625 119.039062 C 227.746094 119.039062 226.921875 118.214844 226.921875 117.195312 C 226.921875 116.246094 227.636719 115.464844 228.558594 115.363281 L 228.558594 114.554688 " fill-opacity="1" fill-rule="nonzero"/></g><path fill="#236c75" d="M 228.765625 114.546875 C 228.695312 114.546875 228.628906 114.550781 228.558594 114.554688 L 228.558594 115.363281 C 228.628906 115.355469 228.695312 115.351562 228.765625 115.351562 C 228.832031 115.351562 228.902344 115.355469 228.96875 115.363281 L 228.96875 114.554688 C 228.902344 114.550781 228.832031 114.546875 228.765625 114.546875 " fill-opacity="1" fill-rule="nonzero"/><path fill="#9ad982" d="M 228.558594 115.363281 C 227.636719 115.464844 226.921875 116.246094 226.921875 117.195312 C 226.921875 118.210938 227.746094 119.039062 228.765625 119.039062 C 229.78125 119.039062 230.605469 118.210938 230.605469 117.195312 C 230.605469 116.246094 229.890625 115.464844 228.96875 115.363281 L 228.96875 116.117188 C 229.476562 116.214844 229.859375 116.660156 229.859375 117.195312 C 229.859375 117.800781 229.371094 118.289062 228.765625 118.289062 C 228.160156 118.289062 227.667969 117.800781 227.667969 117.195312 C 227.667969 116.660156 228.050781 116.214844 228.558594 116.117188 L 228.558594 115.363281 " fill-opacity="1" fill-rule="nonzero"/><path fill="#35ba9d" d="M 228.765625 115.351562 C 228.695312 115.351562 228.628906 115.355469 228.558594 115.363281 L 228.558594 116.117188 C 228.625 116.105469 228.695312 116.097656 228.765625 116.097656 C 228.832031 116.097656 228.902344 116.105469 228.96875 116.117188 L 228.96875 115.363281 C 228.902344 115.355469 228.832031 115.351562 228.765625 115.351562 " fill-opacity="1" fill-rule="nonzero"/><path fill="#ebf7e3" d="M 228.558594 116.117188 C 228.050781 116.214844 227.667969 116.660156 227.667969 117.195312 C 227.667969 117.800781 228.160156 118.292969 228.761719 118.292969 C 229.367188 118.292969 229.859375 117.800781 229.859375 117.195312 C 229.859375 116.660156 229.476562 116.214844 228.96875 116.117188 L 228.96875 117.195312 L 228.558594 117.195312 L 228.558594 116.117188 " fill-opacity="1" fill-rule="nonzero"/><path fill="#d7f1e7" d="M 228.765625 116.097656 C 228.695312 116.097656 228.625 116.105469 228.558594 116.117188 L 228.558594 117.195312 L 228.96875 117.195312 L 228.96875 116.117188 C 228.902344 116.105469 228.832031 116.097656 228.765625 116.097656 " fill-opacity="1" fill-rule="nonzero"/><g clip-path="url(#9f718bb11c)"><path fill="#ccebbb" d="M 140.84375 241.394531 C 139.449219 241.394531 138.304688 242.472656 138.199219 243.839844 L 139.011719 243.839844 C 139.113281 242.917969 139.894531 242.199219 140.84375 242.199219 C 141.859375 242.199219 142.683594 243.023438 142.683594 244.042969 C 142.683594 245.058594 141.859375 245.882812 140.84375 245.882812 C 139.894531 245.882812 139.113281 245.167969 139.011719 244.246094 L 138.199219 244.246094 C 138.304688 245.613281 139.449219 246.691406 140.84375 246.691406 C 142.304688 246.691406 143.492188 245.503906 143.492188 244.042969 C 143.492188 242.578125 142.304688 241.394531 140.84375 241.394531 " fill-opacity="1" fill-rule="nonzero"/></g><path fill="#236c75" d="M 139.011719 243.839844 L 138.199219 243.839844 C 138.195312 243.90625 138.191406 243.972656 138.191406 244.042969 C 138.191406 244.109375 138.195312 244.179688 138.199219 244.246094 L 139.011719 244.246094 C 139.003906 244.179688 139 244.109375 139 244.042969 C 139 243.972656 139.003906 243.90625 139.011719 243.839844 " fill-opacity="1" fill-rule="nonzero"/><path fill="#9ad982" d="M 140.84375 242.199219 C 139.894531 242.199219 139.113281 242.917969 139.011719 243.839844 L 139.765625 243.839844 C 139.859375 243.332031 140.304688 242.945312 140.84375 242.945312 C 141.449219 242.945312 141.9375 243.4375 141.9375 244.042969 C 141.9375 244.648438 141.449219 245.136719 140.84375 245.136719 C 140.304688 245.136719 139.859375 244.753906 139.765625 244.246094 L 139.011719 244.246094 C 139.113281 245.167969 139.894531 245.882812 140.84375 245.882812 C 141.859375 245.882812 142.683594 245.058594 142.683594 244.042969 C 142.683594 243.023438 141.859375 242.199219 140.84375 242.199219 " fill-opacity="1" fill-rule="nonzero"/><path fill="#35ba9d" d="M 139.765625 243.839844 L 139.011719 243.839844 C 139.003906 243.90625 139 243.972656 139 244.042969 C 139 244.109375 139.003906 244.179688 139.011719 244.246094 L 139.765625 244.246094 C 139.753906 244.179688 139.746094 244.113281 139.746094 244.042969 C 139.746094 243.972656 139.753906 243.902344 139.765625 243.839844 " fill-opacity="1" fill-rule="nonzero"/><path fill="#ebf7e3" d="M 140.84375 242.945312 C 140.304688 242.945312 139.859375 243.332031 139.765625 243.839844 L 140.84375 243.839844 L 140.84375 244.246094 L 139.765625 244.246094 C 139.859375 244.753906 140.304688 245.136719 140.84375 245.136719 C 141.449219 245.136719 141.9375 244.648438 141.9375 244.042969 C 141.9375 243.4375 141.449219 242.945312 140.84375 242.945312 " fill-opacity="1" fill-rule="nonzero"/><path fill="#d7f1e7" d="M 140.84375 243.839844 L 139.765625 243.839844 C 139.753906 243.902344 139.746094 243.972656 139.746094 244.042969 C 139.746094 244.113281 139.753906 244.179688 139.765625 244.246094 L 140.84375 244.246094 L 140.84375 243.839844 " fill-opacity="1" fill-rule="nonzero"/><g clip-path="url(#a106df8b21)"><path fill="#ccebbb" d="M 100.5625 201.125 C 99.101562 201.125 97.914062 202.3125 97.914062 203.773438 C 97.914062 205.167969 98.992188 206.308594 100.359375 206.414062 L 100.359375 205.605469 C 99.4375 205.503906 98.722656 204.722656 98.722656 203.773438 C 98.722656 202.757812 99.546875 201.929688 100.5625 201.929688 C 101.582031 201.929688 102.40625 202.757812 102.40625 203.773438 C 102.40625 204.722656 101.691406 205.503906 100.769531 205.605469 L 100.769531 206.414062 C 102.136719 206.308594 103.214844 205.167969 103.214844 203.773438 C 103.214844 202.3125 102.027344 201.125 100.5625 201.125 " fill-opacity="1" fill-rule="nonzero"/></g><path fill="#236c75" d="M 100.359375 205.605469 L 100.359375 206.414062 C 100.425781 206.417969 100.496094 206.421875 100.5625 206.421875 C 100.632812 206.421875 100.699219 206.417969 100.769531 206.414062 L 100.769531 205.605469 C 100.699219 205.613281 100.632812 205.617188 100.5625 205.617188 C 100.496094 205.617188 100.425781 205.613281 100.359375 205.605469 " fill-opacity="1" fill-rule="nonzero"/><path fill="#9ad982" d="M 100.5625 201.929688 C 99.546875 201.929688 98.722656 202.757812 98.722656 203.773438 C 98.722656 204.722656 99.4375 205.503906 100.359375 205.605469 L 100.359375 204.851562 C 99.851562 204.753906 99.46875 204.308594 99.46875 203.773438 C 99.46875 203.167969 99.957031 202.675781 100.5625 202.675781 C 101.167969 202.675781 101.660156 203.167969 101.660156 203.773438 C 101.660156 204.308594 101.277344 204.753906 100.769531 204.851562 L 100.769531 205.605469 C 101.691406 205.503906 102.40625 204.722656 102.40625 203.773438 C 102.40625 202.757812 101.582031 201.929688 100.5625 201.929688 " fill-opacity="1" fill-rule="nonzero"/><path fill="#35ba9d" d="M 100.769531 204.851562 C 100.703125 204.863281 100.632812 204.871094 100.5625 204.871094 C 100.492188 204.871094 100.425781 204.863281 100.359375 204.851562 L 100.359375 205.605469 C 100.425781 205.613281 100.496094 205.617188 100.5625 205.617188 C 100.632812 205.617188 100.699219 205.613281 100.769531 205.605469 L 100.769531 204.851562 " fill-opacity="1" fill-rule="nonzero"/><path fill="#ebf7e3" d="M 100.5625 202.675781 C 99.957031 202.675781 99.46875 203.167969 99.46875 203.773438 C 99.46875 204.308594 99.851562 204.753906 100.359375 204.851562 L 100.359375 203.773438 L 100.769531 203.773438 L 100.769531 204.851562 C 101.277344 204.753906 101.660156 204.308594 101.660156 203.773438 C 101.660156 203.167969 101.167969 202.675781 100.5625 202.675781 " fill-opacity="1" fill-rule="nonzero"/><path fill="#d7f1e7" d="M 100.769531 203.773438 L 100.359375 203.773438 L 100.359375 204.851562 C 100.425781 204.863281 100.492188 204.871094 100.5625 204.871094 C 100.632812 204.871094 100.703125 204.863281 100.769531 204.851562 L 100.769531 203.773438 " fill-opacity="1" fill-rule="nonzero"/><g clip-path="url(#0de431763b)"><path fill="#ccebbb" d="M 188.484375 241.394531 C 187.023438 241.394531 185.835938 242.578125 185.835938 244.042969 C 185.835938 245.503906 187.023438 246.691406 188.484375 246.691406 C 189.28125 246.691406 189.996094 246.339844 190.484375 245.785156 L 189.089844 245.785156 C 188.902344 245.847656 188.699219 245.882812 188.484375 245.882812 C 187.46875 245.882812 186.644531 245.058594 186.644531 244.042969 C 186.644531 243.023438 187.46875 242.199219 188.484375 242.199219 C 189.503906 242.199219 190.328125 243.023438 190.328125 244.042969 C 190.328125 244.5625 190.113281 245.03125 189.765625 245.367188 L 190.78125 245.367188 C 191.007812 244.976562 191.136719 244.523438 191.136719 244.042969 C 191.136719 242.578125 189.949219 241.394531 188.484375 241.394531 " fill-opacity="1" fill-rule="nonzero"/></g><path fill="#236c75" d="M 190.78125 245.367188 L 189.765625 245.367188 C 189.578125 245.550781 189.347656 245.695312 189.089844 245.785156 L 190.484375 245.785156 C 190.59375 245.65625 190.695312 245.515625 190.78125 245.367188 " fill-opacity="1" fill-rule="nonzero"/><path fill="#9ad982" d="M 188.484375 242.199219 C 187.46875 242.199219 186.644531 243.023438 186.644531 244.042969 C 186.644531 245.058594 187.46875 245.882812 188.484375 245.882812 C 188.699219 245.882812 188.902344 245.847656 189.089844 245.785156 L 188.921875 245.785156 L 188.921875 245.367188 L 189.765625 245.367188 C 190.113281 245.03125 190.328125 244.5625 190.328125 244.042969 C 190.328125 243.023438 189.503906 242.199219 188.484375 242.199219 M 188.484375 245.136719 C 187.882812 245.136719 187.390625 244.648438 187.390625 244.042969 C 187.390625 243.4375 187.882812 242.945312 188.484375 242.945312 C 189.089844 242.945312 189.582031 243.4375 189.582031 244.042969 C 189.582031 244.648438 189.089844 245.136719 188.484375 245.136719 " fill-opacity="1" fill-rule="nonzero"/><path fill="#35ba9d" d="M 189.765625 245.367188 L 188.921875 245.367188 L 188.921875 245.785156 L 189.089844 245.785156 C 189.347656 245.695312 189.578125 245.550781 189.765625 245.367188 " fill-opacity="1" fill-rule="nonzero"/><path fill="#ebf7e3" d="M 188.484375 242.945312 C 187.882812 242.945312 187.390625 243.4375 187.390625 244.042969 C 187.390625 244.648438 187.882812 245.136719 188.484375 245.136719 C 189.089844 245.136719 189.582031 244.648438 189.582031 244.042969 C 189.582031 243.4375 189.089844 242.945312 188.484375 242.945312 " fill-opacity="1" fill-rule="nonzero"/><g clip-path="url(#dcfe3eeb3e)"><path fill="#ccebbb" d="M 228.765625 201.125 C 227.300781 201.125 226.113281 202.3125 226.113281 203.773438 C 226.113281 205.238281 227.300781 206.421875 228.765625 206.421875 C 229.105469 206.421875 229.433594 206.359375 229.730469 206.238281 L 229.730469 205.339844 C 229.449219 205.515625 229.117188 205.617188 228.765625 205.617188 C 227.746094 205.617188 226.921875 204.789062 226.921875 203.773438 C 226.921875 202.757812 227.746094 201.929688 228.765625 201.929688 C 229.78125 201.929688 230.605469 202.757812 230.605469 203.773438 C 230.605469 204.238281 230.433594 204.664062 230.148438 204.988281 L 230.148438 206.03125 C 230.90625 205.566406 231.414062 204.730469 231.414062 203.773438 C 231.414062 202.3125 230.226562 201.125 228.765625 201.125 " fill-opacity="1" fill-rule="nonzero"/></g><path fill="#236c75" d="M 230.148438 204.988281 C 230.027344 205.125 229.890625 205.246094 229.730469 205.339844 L 229.730469 206.238281 C 229.878906 206.183594 230.015625 206.113281 230.148438 206.03125 L 230.148438 204.988281 " fill-opacity="1" fill-rule="nonzero"/><path fill="#9ad982" d="M 228.765625 201.929688 C 227.746094 201.929688 226.921875 202.757812 226.921875 203.773438 C 226.921875 204.789062 227.746094 205.617188 228.765625 205.617188 C 229.121094 205.617188 229.449219 205.515625 229.734375 205.339844 L 229.734375 204.566406 L 230.148438 204.566406 L 230.148438 204.988281 C 230.433594 204.664062 230.605469 204.238281 230.605469 203.773438 C 230.605469 202.757812 229.78125 201.929688 228.765625 201.929688 M 228.765625 204.871094 C 228.160156 204.871094 227.667969 204.378906 227.667969 203.773438 C 227.667969 203.167969 228.160156 202.675781 228.765625 202.675781 C 229.371094 202.675781 229.859375 203.167969 229.859375 203.773438 C 229.859375 204.378906 229.371094 204.871094 228.765625 204.871094 " fill-opacity="1" fill-rule="nonzero"/><path fill="#35ba9d" d="M 230.148438 204.566406 L 229.730469 204.566406 L 229.730469 205.339844 C 229.890625 205.246094 230.027344 205.125 230.148438 204.988281 L 230.148438 204.566406 " fill-opacity="1" fill-rule="nonzero"/><path fill="#ebf7e3" d="M 228.761719 202.675781 C 228.160156 202.675781 227.667969 203.167969 227.667969 203.773438 C 227.667969 204.378906 228.160156 204.871094 228.761719 204.871094 C 229.367188 204.871094 229.859375 204.378906 229.859375 203.773438 C 229.859375 203.167969 229.367188 202.675781 228.761719 202.675781 " fill-opacity="1" fill-rule="nonzero"/><g clip-path="url(#94fda13f92)"><path fill="#4a9bdb" d="M 144.339844 133.296875 L 153.417969 189.378906 L 164.660156 213.441406 L 210.917969 245.929688 L 248.539062 245.929688 L 252.425781 240.191406 L 256.757812 233.800781 L 265.839844 205.640625 L 273.609375 164.917969 L 271.453125 144.125 L 277.078125 125.941406 L 265.839844 85.652344 L 245.082031 89.113281 L 201.835938 87.382812 L 185.097656 81.007812 L 171.136719 75.6875 L 161.191406 89.113281 L 144.339844 133.296875 " fill-opacity="1" fill-rule="nonzero"/></g><g clip-path="url(#902155c98e)"><path fill="#62cce5" d="M 164.230469 178.359375 L 199.246094 204.890625 L 218.273438 205.429688 L 244.59375 220.539062 L 238.160156 234.453125 L 252.425781 240.191406 L 256.757812 233.800781 L 265.835938 205.640625 L 273.609375 164.921875 L 271.453125 144.125 L 277.078125 125.941406 L 265.835938 85.652344 L 245.082031 89.113281 L 201.835938 87.382812 L 185.097656 81.007812 L 191.890625 121.601562 L 182.824219 148.683594 L 164.230469 178.359375 " fill-opacity="1" fill-rule="nonzero"/></g><path fill="#4a9bdb" d="M 241.945312 189.835938 L 218.273438 205.429688 L 255.484375 199.636719 L 241.945312 189.835938 " fill-opacity="1" fill-rule="nonzero"/><path fill="#4a9bdb" d="M 250.046875 150.503906 L 267.347656 183.121094 L 244.324219 192.21875 L 250.046875 150.503906 " fill-opacity="1" fill-rule="nonzero"/><path fill="#4a9bdb" d="M 254.753906 179.328125 L 244.324219 192.21875 L 227.570312 178.355469 L 237.40625 174.566406 L 254.753906 179.328125 " fill-opacity="1" fill-rule="nonzero"/><path fill="#8edaf1" d="M 235.675781 200.554688 L 246.269531 193.410156 L 255.484375 199.636719 L 249.457031 204.128906 L 235.675781 200.554688 " fill-opacity="1" fill-rule="nonzero"/><g clip-path="url(#042bd5c1bb)"><path fill="#8edaf1" d="M 199.246094 122.472656 L 201.835938 87.382812 L 245.082031 89.113281 L 265.839844 85.652344 L 277.074219 125.9375 L 235.835938 134.277344 L 199.246094 122.472656 " fill-opacity="1" fill-rule="nonzero"/></g><path fill="#2c66a6" d="M 269.941406 124.203125 L 276.605469 127.453125 L 271.453125 144.132812 L 272.714844 156.265625 L 264.320312 157.996094 L 250.414062 151.4375 L 244.320312 136.007812 L 247.835938 126.640625 L 269.941406 124.203125 " fill-opacity="1" fill-rule="nonzero"/><path fill="#4a9bdb" d="M 250.855469 131.175781 L 246.015625 140.289062 L 244.324219 136.007812 L 247.835938 126.640625 L 250.855469 131.175781 " fill-opacity="1" fill-rule="nonzero"/><path fill="#4a9bdb" d="M 226.917969 127.453125 L 228.648438 125.9375 L 234.8125 139.257812 L 247.589844 167.859375 L 234.769531 176.621094 L 224.324219 144.566406 L 221.949219 134.167969 L 226.917969 127.453125 " fill-opacity="1" fill-rule="nonzero"/><path fill="#2c66a6" d="M 224.324219 127.453125 L 228.648438 125.9375 L 224.324219 138.285156 L 224.324219 144.566406 L 202.707031 157.992188 L 182.816406 148.679688 L 176.761719 133.300781 L 192.328125 124.203125 L 224.324219 127.453125 " fill-opacity="1" fill-rule="nonzero"/><path fill="#16344f" d="M 228.648438 125.9375 L 225.621094 130.808594 L 193.195312 125.9375 L 176.765625 133.300781 L 191.898438 121.605469 L 228.648438 125.9375 " fill-opacity="1" fill-rule="nonzero"/><g clip-path="url(#594fe0714b)"><path fill="#16344f" d="M 247.835938 126.640625 L 270.050781 122.417969 L 277.074219 125.9375 L 276.605469 127.453125 L 270.210938 125.664062 L 250.855469 131.175781 L 247.835938 126.640625 " fill-opacity="1" fill-rule="nonzero"/></g><path fill="#8edaf1" d="M 246.820312 129.347656 L 244.324219 136.007812 L 258.484375 171.855469 L 240.324219 169.90625 L 244.972656 162 L 230.703125 130.378906 L 239.027344 128.425781 L 246.820312 129.347656 " fill-opacity="1" fill-rule="nonzero"/><path fill="#8edaf1" d="M 259.890625 207.488281 C 259.5625 207.597656 251.242188 213.878906 251.242188 213.878906 L 235.242188 213.878906 L 217.710938 205.535156 L 236.433594 203.316406 L 256.105469 204.890625 L 262.796875 205.875 L 259.890625 207.488281 " fill-opacity="1" fill-rule="nonzero"/><path fill="#16344f" d="M 255.484375 199.636719 C 255.050781 199.636719 246.59375 201.53125 246.59375 201.53125 L 238.160156 198.828125 L 218.273438 205.429688 L 235.351562 206.730469 L 247.566406 206.730469 L 263.023438 205.863281 L 255.484375 199.636719 " fill-opacity="1" fill-rule="nonzero"/><path fill="#4a9bdb" d="M 250.808594 216.691406 L 236.433594 216.691406 L 244.59375 220.539062 Z M 250.808594 216.691406 " fill-opacity="1" fill-rule="nonzero"/><g clip-path="url(#129fc11ec8)"><path fill="#2c66a6" d="M 210.921875 245.933594 L 229.1875 234.453125 L 251.890625 235.105469 L 255.492188 235.667969 L 248.539062 245.933594 L 210.921875 245.933594 " fill-opacity="1" fill-rule="nonzero"/></g><path fill="#16344f" d="M 199.246094 204.890625 L 187.574219 183.769531 L 164.222656 178.355469 Z M 199.246094 204.890625 " fill-opacity="1" fill-rule="nonzero"/><path fill="#16344f" d="M 242.339844 170.125 L 232.324219 171.855469 L 227.570312 178.355469 L 241.363281 178.355469 L 249.191406 180.335938 L 254.753906 179.328125 L 258.484375 171.855469 L 242.339844 170.125 " fill-opacity="1" fill-rule="nonzero"/><path fill="#4a9bdb" d="M 217.429688 144.296875 L 199.753906 147.601562 L 193.550781 142.945312 C 193.550781 142.945312 202.25 137.113281 202.625 137.089844 C 203 137.066406 218.371094 138.394531 218.371094 138.394531 L 217.429688 144.296875 " fill-opacity="1" fill-rule="nonzero"/><path fill="#4a9bdb" d="M 267.164062 143.640625 L 253.105469 144.546875 C 253.105469 144.546875 255.738281 137.089844 256.0625 137.089844 C 256.386719 137.089844 268.65625 138.414062 268.65625 138.414062 L 269.683594 141.816406 L 267.164062 143.640625 " fill-opacity="1" fill-rule="nonzero"/><path fill="#8edaf1" d="M 250.417969 151.4375 L 272.714844 156.265625 L 273.453125 165.738281 L 250.417969 151.4375 " fill-opacity="1" fill-rule="nonzero"/><g clip-path="url(#7a63d86a90)"><g clip-path="url(#219bf84878)"><path fill="#5bb4e0" d="M 186.472656 95.859375 L 187.582031 95.859375 L 187.582031 92.054688 L 186.472656 92.054688 L 186.472656 95.859375 " fill-opacity="1" fill-rule="nonzero"/></g></g><path fill="#73d1de" d="M 189.277344 90.808594 C 188.304688 90.808594 187.449219 91.300781 186.945312 92.054688 L 187.582031 95.859375 C 188.054688 96.21875 188.640625 96.429688 189.277344 96.429688 C 190.824219 96.429688 192.082031 95.171875 192.082031 93.617188 C 192.082031 92.066406 190.824219 90.808594 189.277344 90.808594 M 189.277344 95.574219 C 188.199219 95.574219 187.324219 94.699219 187.324219 93.617188 C 187.324219 92.539062 188.199219 91.664062 189.277344 91.664062 C 190.351562 91.664062 191.226562 92.539062 191.226562 93.617188 C 191.226562 94.699219 190.351562 95.574219 189.277344 95.574219 " fill-opacity="1" fill-rule="nonzero"/><path fill="#83d5d4" d="M 189.277344 91.664062 C 188.199219 91.664062 187.324219 92.539062 187.324219 93.617188 C 187.324219 94.699219 188.199219 95.574219 189.277344 95.574219 C 190.355469 95.574219 191.226562 94.699219 191.226562 93.617188 C 191.226562 92.539062 190.355469 91.664062 189.277344 91.664062 M 189.277344 94.78125 C 188.632812 94.78125 188.113281 94.261719 188.113281 93.617188 C 188.113281 92.976562 188.632812 92.457031 189.277344 92.457031 C 189.917969 92.457031 190.4375 92.976562 190.4375 93.617188 C 190.4375 94.261719 189.917969 94.78125 189.277344 94.78125 " fill-opacity="1" fill-rule="nonzero"/><path fill="#e7f7fa" d="M 189.273438 92.457031 C 188.632812 92.457031 188.113281 92.976562 188.113281 93.617188 C 188.113281 94.261719 188.632812 94.78125 189.273438 94.78125 C 189.917969 94.78125 190.4375 94.261719 190.4375 93.617188 C 190.4375 92.976562 189.917969 92.457031 189.273438 92.457031 " fill-opacity="1" fill-rule="nonzero"/><path fill="#9adee8" d="M 255.335938 91.664062 C 253.789062 91.664062 252.535156 92.921875 252.535156 94.472656 C 252.535156 96.027344 253.789062 97.285156 255.335938 97.285156 C 256.886719 97.285156 258.144531 96.027344 258.144531 94.472656 C 258.144531 92.921875 256.886719 91.664062 255.335938 91.664062 M 255.335938 96.429688 C 254.261719 96.429688 253.386719 95.554688 253.386719 94.472656 C 253.386719 93.394531 254.261719 92.519531 255.335938 92.519531 C 256.414062 92.519531 257.289062 93.394531 257.289062 94.472656 C 257.289062 95.554688 256.414062 96.429688 255.335938 96.429688 " fill-opacity="1" fill-rule="nonzero"/><path fill="#a6e1de" d="M 255.335938 92.519531 C 254.257812 92.519531 253.386719 93.394531 253.386719 94.476562 C 253.386719 95.554688 254.257812 96.429688 255.335938 96.429688 C 256.414062 96.429688 257.289062 95.554688 257.289062 94.476562 C 257.289062 93.394531 256.414062 92.519531 255.335938 92.519531 M 255.335938 95.636719 C 254.695312 95.636719 254.175781 95.117188 254.175781 94.476562 C 254.175781 93.832031 254.695312 93.3125 255.335938 93.3125 C 255.976562 93.3125 256.496094 93.832031 256.496094 94.476562 C 256.496094 95.117188 255.976562 95.636719 255.335938 95.636719 " fill-opacity="1" fill-rule="nonzero"/><path fill="#eef9fd" d="M 255.335938 93.3125 C 254.695312 93.3125 254.175781 93.832031 254.175781 94.472656 C 254.175781 95.117188 254.695312 95.636719 255.335938 95.636719 C 255.976562 95.636719 256.5 95.117188 256.5 94.472656 C 256.5 93.832031 255.976562 93.3125 255.335938 93.3125 " fill-opacity="1" fill-rule="nonzero"/><path fill="#3891ba" d="M 196.578125 145.21875 C 196.566406 145.328125 196.5625 145.4375 196.5625 145.550781 C 196.5625 147.105469 197.816406 148.363281 199.367188 148.363281 C 200.273438 148.363281 201.082031 147.929688 201.59375 147.257812 L 199.753906 147.601562 L 199.605469 147.492188 C 199.527344 147.5 199.449219 147.507812 199.367188 147.507812 C 198.394531 147.507812 197.589844 146.796875 197.4375 145.863281 L 196.578125 145.21875 " fill-opacity="1" fill-rule="nonzero"/><path fill="#5bb4e0" d="M 199.367188 142.742188 C 197.929688 142.742188 196.742188 143.824219 196.578125 145.21875 L 197.4375 145.863281 C 197.421875 145.761719 197.414062 145.65625 197.414062 145.550781 C 197.414062 144.472656 198.289062 143.597656 199.367188 143.597656 C 200.441406 143.597656 201.316406 144.472656 201.316406 145.550781 C 201.316406 146.550781 200.570312 147.371094 199.605469 147.492188 L 199.753906 147.601562 L 201.59375 147.257812 C 201.957031 146.785156 202.171875 146.191406 202.171875 145.550781 C 202.171875 144 200.914062 142.742188 199.367188 142.742188 " fill-opacity="1" fill-rule="nonzero"/><path fill="#46c2ca" d="M 197.4375 145.863281 C 197.589844 146.796875 198.394531 147.507812 199.367188 147.507812 C 199.449219 147.507812 199.527344 147.5 199.605469 147.492188 L 197.4375 145.863281 " fill-opacity="1" fill-rule="nonzero"/><path fill="#6bcfe4" d="M 199.367188 143.597656 C 198.289062 143.597656 197.414062 144.472656 197.414062 145.550781 C 197.414062 145.65625 197.421875 145.761719 197.4375 145.863281 L 199.605469 147.492188 C 200.570312 147.371094 201.316406 146.550781 201.316406 145.550781 C 201.316406 144.472656 200.441406 143.597656 199.367188 143.597656 M 199.367188 146.714844 C 198.726562 146.714844 198.203125 146.195312 198.203125 145.550781 C 198.203125 144.910156 198.726562 144.390625 199.367188 144.390625 C 200.007812 144.390625 200.527344 144.910156 200.527344 145.550781 C 200.527344 146.195312 200.007812 146.714844 199.367188 146.714844 " fill-opacity="1" fill-rule="nonzero"/><path fill="#e2f6fd" d="M 199.367188 144.390625 C 198.726562 144.390625 198.203125 144.910156 198.203125 145.550781 C 198.203125 146.195312 198.726562 146.714844 199.367188 146.714844 C 200.007812 146.714844 200.527344 146.195312 200.527344 145.550781 C 200.527344 144.910156 200.007812 144.390625 199.367188 144.390625 " fill-opacity="1" fill-rule="nonzero"/><path fill="#73d1de" d="M 193.035156 170.914062 C 191.484375 170.914062 190.230469 172.171875 190.230469 173.722656 C 190.230469 175.277344 191.484375 176.535156 193.035156 176.535156 C 194.585938 176.535156 195.839844 175.277344 195.839844 173.722656 C 195.839844 172.171875 194.585938 170.914062 193.035156 170.914062 M 193.035156 175.679688 C 191.957031 175.679688 191.085938 174.800781 191.085938 173.722656 C 191.085938 172.644531 191.957031 171.769531 193.035156 171.769531 C 194.113281 171.769531 194.984375 172.644531 194.984375 173.722656 C 194.984375 174.800781 194.113281 175.679688 193.035156 175.679688 " fill-opacity="1" fill-rule="nonzero"/><path fill="#83d5d4" d="M 193.035156 171.769531 C 191.957031 171.769531 191.085938 172.644531 191.085938 173.722656 C 191.085938 174.800781 191.957031 175.679688 193.035156 175.679688 C 194.113281 175.679688 194.984375 174.800781 194.984375 173.722656 C 194.984375 172.644531 194.113281 171.769531 193.035156 171.769531 M 193.035156 174.886719 C 192.394531 174.886719 191.875 174.367188 191.875 173.722656 C 191.875 173.082031 192.394531 172.5625 193.035156 172.5625 C 193.675781 172.5625 194.195312 173.082031 194.195312 173.722656 C 194.195312 174.367188 193.675781 174.886719 193.035156 174.886719 " fill-opacity="1" fill-rule="nonzero"/><path fill="#e7f7fa" d="M 193.035156 172.5625 C 192.394531 172.5625 191.875 173.082031 191.875 173.722656 C 191.875 174.367188 192.394531 174.886719 193.035156 174.886719 C 193.675781 174.886719 194.195312 174.367188 194.195312 173.722656 C 194.195312 173.082031 193.675781 172.5625 193.035156 172.5625 " fill-opacity="1" fill-rule="nonzero"/><path fill="#73d1de" d="M 263.011719 184.832031 L 260.738281 185.730469 C 260.808594 185.738281 260.875 185.738281 260.949219 185.738281 C 261.761719 185.738281 262.5 185.390625 263.011719 184.832031 " fill-opacity="1" fill-rule="nonzero"/><path fill="#5bb4e0" d="M 260.949219 180.117188 C 259.398438 180.117188 258.140625 181.375 258.140625 182.929688 C 258.140625 184.410156 259.285156 185.625 260.738281 185.730469 L 263.011719 184.832031 C 263.472656 184.332031 263.753906 183.664062 263.753906 182.929688 C 263.753906 181.375 262.496094 180.117188 260.949219 180.117188 M 260.949219 184.882812 C 259.871094 184.882812 258.996094 184.007812 258.996094 182.929688 C 258.996094 181.847656 259.871094 180.972656 260.949219 180.972656 C 262.023438 180.972656 262.898438 181.847656 262.898438 182.929688 C 262.898438 184.007812 262.023438 184.882812 260.949219 184.882812 " fill-opacity="1" fill-rule="nonzero"/><path fill="#6bcfe4" d="M 260.949219 180.972656 C 259.871094 180.972656 258.996094 181.847656 258.996094 182.929688 C 258.996094 184.007812 259.871094 184.882812 260.949219 184.882812 C 262.023438 184.882812 262.898438 184.007812 262.898438 182.929688 C 262.898438 181.847656 262.023438 180.972656 260.949219 180.972656 M 260.949219 184.09375 C 260.308594 184.09375 259.785156 183.570312 259.785156 182.929688 C 259.785156 182.285156 260.308594 181.765625 260.949219 181.765625 C 261.589844 181.765625 262.109375 182.285156 262.109375 182.929688 C 262.109375 183.570312 261.589844 184.09375 260.949219 184.09375 " fill-opacity="1" fill-rule="nonzero"/><path fill="#e2f6fd" d="M 260.949219 181.765625 C 260.308594 181.765625 259.785156 182.285156 259.785156 182.929688 C 259.785156 183.570312 260.308594 184.09375 260.949219 184.09375 C 261.589844 184.09375 262.109375 183.570312 262.109375 182.929688 C 262.109375 182.285156 261.589844 181.765625 260.949219 181.765625 " fill-opacity="1" fill-rule="nonzero"/><path fill="#5bb4e0" d="M 221.3125 207.25 C 221.628906 208.453125 222.722656 209.339844 224.023438 209.339844 C 224.316406 209.339844 224.59375 209.292969 224.859375 209.210938 L 223.425781 208.390625 C 223.164062 208.304688 222.925781 208.167969 222.726562 207.988281 L 222.054688 207.601562 L 221.3125 207.25 " fill-opacity="1" fill-rule="nonzero"/><path fill="#73d1de" d="M 222.054688 207.601562 L 222.726562 207.988281 C 222.679688 207.945312 222.636719 207.902344 222.59375 207.859375 L 222.054688 207.601562 M 223.425781 208.390625 L 224.859375 209.210938 C 224.96875 209.175781 225.078125 209.136719 225.179688 209.089844 L 223.898438 208.480469 C 223.734375 208.46875 223.578125 208.4375 223.425781 208.390625 " fill-opacity="1" fill-rule="nonzero"/><path fill="#9adee8" d="M 221.355469 205.664062 C 221.265625 205.9375 221.21875 206.226562 221.21875 206.527344 C 221.21875 206.777344 221.25 207.019531 221.3125 207.25 L 222.054688 207.601562 L 222.59375 207.859375 C 222.273438 207.511719 222.074219 207.042969 222.074219 206.527344 C 222.074219 206.246094 222.132812 205.976562 222.242188 205.730469 L 221.355469 205.664062 M 225.90625 206.011719 C 225.953125 206.175781 225.976562 206.347656 225.976562 206.527344 C 225.976562 207.609375 225.101562 208.484375 224.023438 208.484375 C 223.980469 208.484375 223.941406 208.480469 223.898438 208.480469 L 225.179688 209.089844 C 226.152344 208.648438 226.828125 207.667969 226.828125 206.527344 C 226.828125 206.375 226.816406 206.226562 226.792969 206.078125 L 225.90625 206.011719 " fill-opacity="1" fill-rule="nonzero"/><path fill="#236c75" d="M 224.023438 203.71875 C 222.777344 203.71875 221.71875 204.535156 221.355469 205.664062 L 222.242188 205.730469 C 222.546875 205.050781 223.230469 204.574219 224.023438 204.574219 C 224.921875 204.574219 225.679688 205.183594 225.90625 206.011719 L 226.792969 206.078125 C 226.578125 204.738281 225.421875 203.71875 224.023438 203.71875 " fill-opacity="1" fill-rule="nonzero"/><path fill="#6bcfe4" d="M 222.726562 207.988281 C 222.925781 208.167969 223.164062 208.304688 223.425781 208.390625 L 222.726562 207.988281 " fill-opacity="1" fill-rule="nonzero"/><path fill="#83d5d4" d="M 222.59375 207.859375 C 222.636719 207.902344 222.679688 207.945312 222.726562 207.988281 L 223.425781 208.390625 C 223.578125 208.4375 223.734375 208.46875 223.898438 208.480469 L 222.59375 207.859375 " fill-opacity="1" fill-rule="nonzero"/><path fill="#a6e1de" d="M 222.242188 205.730469 C 222.132812 205.976562 222.074219 206.246094 222.074219 206.527344 C 222.074219 207.042969 222.273438 207.511719 222.59375 207.859375 L 223.898438 208.480469 C 223.941406 208.480469 223.980469 208.484375 224.023438 208.484375 C 225.101562 208.484375 225.976562 207.609375 225.976562 206.527344 C 225.976562 206.347656 225.953125 206.175781 225.90625 206.011719 L 225.027344 205.945312 C 225.128906 206.117188 225.183594 206.316406 225.183594 206.527344 C 225.183594 207.171875 224.664062 207.691406 224.023438 207.691406 C 223.382812 207.691406 222.863281 207.171875 222.863281 206.527344 C 222.863281 206.253906 222.960938 206 223.121094 205.800781 L 222.242188 205.730469 " fill-opacity="1" fill-rule="nonzero"/><path fill="#35ba9d" d="M 224.023438 204.574219 C 223.230469 204.574219 222.546875 205.050781 222.242188 205.730469 L 223.121094 205.800781 C 223.332031 205.535156 223.660156 205.363281 224.023438 205.363281 C 224.453125 205.363281 224.828125 205.597656 225.027344 205.945312 L 225.90625 206.011719 C 225.679688 205.183594 224.921875 204.574219 224.023438 204.574219 " fill-opacity="1" fill-rule="nonzero"/><path fill="#eef9fd" d="M 223.121094 205.800781 C 222.960938 206 222.863281 206.253906 222.863281 206.527344 C 222.863281 207.171875 223.382812 207.691406 224.023438 207.691406 C 224.664062 207.691406 225.183594 207.171875 225.183594 206.527344 C 225.183594 206.316406 225.128906 206.117188 225.027344 205.945312 L 223.121094 205.800781 " fill-opacity="1" fill-rule="nonzero"/><path fill="#d7f1e7" d="M 224.023438 205.363281 C 223.660156 205.363281 223.332031 205.535156 223.121094 205.800781 L 225.027344 205.945312 C 224.828125 205.597656 224.453125 205.363281 224.023438 205.363281 " fill-opacity="1" fill-rule="nonzero"/><path fill="#73d1de" d="M 258.140625 213.910156 C 256.59375 213.910156 255.335938 215.167969 255.335938 216.722656 C 255.335938 218.273438 256.59375 219.53125 258.140625 219.53125 C 259.691406 219.53125 260.949219 218.273438 260.949219 216.722656 C 260.949219 215.167969 259.691406 213.910156 258.140625 213.910156 M 258.140625 218.675781 C 257.066406 218.675781 256.191406 217.800781 256.191406 216.722656 C 256.191406 215.640625 257.066406 214.765625 258.140625 214.765625 C 259.21875 214.765625 260.09375 215.640625 260.09375 216.722656 C 260.09375 217.800781 259.21875 218.675781 258.140625 218.675781 " fill-opacity="1" fill-rule="nonzero"/><path fill="#83d5d4" d="M 258.140625 214.765625 C 257.066406 214.765625 256.191406 215.640625 256.191406 216.722656 C 256.191406 217.800781 257.066406 218.675781 258.140625 218.675781 C 259.21875 218.675781 260.09375 217.800781 260.09375 216.722656 C 260.09375 215.640625 259.21875 214.765625 258.140625 214.765625 M 258.140625 217.882812 C 257.503906 217.882812 256.980469 217.363281 256.980469 216.722656 C 256.980469 216.078125 257.503906 215.558594 258.140625 215.558594 C 258.785156 215.558594 259.304688 216.078125 259.304688 216.722656 C 259.304688 217.363281 258.785156 217.882812 258.140625 217.882812 " fill-opacity="1" fill-rule="nonzero"/><path fill="#e7f7fa" d="M 258.140625 215.558594 C 257.503906 215.558594 256.980469 216.078125 256.980469 216.722656 C 256.980469 217.363281 257.503906 217.882812 258.140625 217.882812 C 258.785156 217.882812 259.304688 217.363281 259.304688 216.722656 C 259.304688 216.078125 258.785156 215.558594 258.140625 215.558594 " fill-opacity="1" fill-rule="nonzero"/><path fill="#3891ba" d="M 229.636719 235.050781 C 228.085938 235.050781 226.828125 236.308594 226.828125 237.859375 C 226.828125 239.410156 228.085938 240.671875 229.636719 240.671875 C 231.183594 240.671875 232.441406 239.410156 232.441406 237.859375 C 232.441406 236.308594 231.183594 235.050781 229.636719 235.050781 M 229.636719 239.816406 C 228.554688 239.816406 227.683594 238.941406 227.683594 237.859375 C 227.683594 236.78125 228.554688 235.90625 229.636719 235.90625 C 230.710938 235.90625 231.585938 236.78125 231.585938 237.859375 C 231.585938 238.941406 230.710938 239.816406 229.636719 239.816406 " fill-opacity="1" fill-rule="nonzero"/><path fill="#46c2ca" d="M 229.636719 235.90625 C 228.554688 235.90625 227.683594 236.78125 227.683594 237.859375 C 227.683594 238.941406 228.554688 239.816406 229.636719 239.816406 C 230.710938 239.816406 231.585938 238.941406 231.585938 237.859375 C 231.585938 236.78125 230.710938 235.90625 229.636719 235.90625 M 229.636719 239.023438 C 228.992188 239.023438 228.472656 238.503906 228.472656 237.859375 C 228.472656 237.21875 228.992188 236.699219 229.636719 236.699219 C 230.273438 236.699219 230.796875 237.21875 230.796875 237.859375 C 230.796875 238.503906 230.273438 239.023438 229.636719 239.023438 " fill-opacity="1" fill-rule="nonzero"/><path fill="#dbf3f5" d="M 229.636719 236.699219 C 228.992188 236.699219 228.472656 237.21875 228.472656 237.859375 C 228.472656 238.503906 228.992188 239.023438 229.636719 239.023438 C 230.273438 239.023438 230.796875 238.503906 230.796875 237.859375 C 230.796875 237.21875 230.273438 236.699219 229.636719 236.699219 " fill-opacity="1" fill-rule="nonzero"/><path fill="#5bb4e0" d="M 197.003906 207.691406 C 195.453125 207.691406 194.195312 208.949219 194.195312 210.503906 C 194.195312 212.054688 195.453125 213.3125 197.003906 213.3125 C 198.550781 213.3125 199.808594 212.054688 199.808594 210.503906 C 199.808594 208.949219 198.550781 207.691406 197.003906 207.691406 M 197.003906 212.457031 C 195.925781 212.457031 195.050781 211.582031 195.050781 210.503906 C 195.050781 209.421875 195.925781 208.546875 197.003906 208.546875 C 198.078125 208.546875 198.953125 209.421875 198.953125 210.503906 C 198.953125 211.582031 198.078125 212.457031 197.003906 212.457031 " fill-opacity="1" fill-rule="nonzero"/><path fill="#6bcfe4" d="M 197.003906 208.546875 C 195.925781 208.546875 195.050781 209.421875 195.050781 210.503906 C 195.050781 211.582031 195.925781 212.457031 197.003906 212.457031 C 198.078125 212.457031 198.953125 211.582031 198.953125 210.503906 C 198.953125 209.421875 198.078125 208.546875 197.003906 208.546875 M 197.003906 211.664062 C 196.363281 211.664062 195.839844 211.144531 195.839844 210.503906 C 195.839844 209.859375 196.363281 209.339844 197.003906 209.339844 C 197.644531 209.339844 198.164062 209.859375 198.164062 210.503906 C 198.164062 211.144531 197.644531 211.664062 197.003906 211.664062 " fill-opacity="1" fill-rule="nonzero"/><path fill="#e2f6fd" d="M 197.003906 209.339844 C 196.363281 209.339844 195.839844 209.859375 195.839844 210.503906 C 195.839844 211.144531 196.363281 211.664062 197.003906 211.664062 C 197.644531 211.664062 198.164062 211.144531 198.164062 210.503906 C 198.164062 209.859375 197.644531 209.339844 197.003906 209.339844 " fill-opacity="1" fill-rule="nonzero"/><path fill="#3891ba" d="M 271.109375 129.320312 C 269.558594 129.320312 268.304688 130.578125 268.304688 132.128906 C 268.304688 133.683594 269.558594 134.941406 271.109375 134.941406 C 272.65625 134.941406 273.914062 133.683594 273.914062 132.128906 C 273.914062 130.578125 272.65625 129.320312 271.109375 129.320312 M 271.109375 134.085938 C 270.03125 134.085938 269.15625 133.210938 269.15625 132.128906 C 269.15625 131.050781 270.03125 130.175781 271.109375 130.175781 C 272.1875 130.175781 273.058594 131.050781 273.058594 132.128906 C 273.058594 133.210938 272.1875 134.085938 271.109375 134.085938 " fill-opacity="1" fill-rule="nonzero"/><path fill="#46c2ca" d="M 271.109375 130.175781 C 270.03125 130.175781 269.15625 131.050781 269.15625 132.132812 C 269.15625 133.210938 270.03125 134.085938 271.109375 134.085938 C 272.1875 134.085938 273.058594 133.210938 273.058594 132.132812 C 273.058594 131.050781 272.1875 130.175781 271.109375 130.175781 M 271.109375 133.292969 C 270.46875 133.292969 269.949219 132.773438 269.949219 132.132812 C 269.949219 131.488281 270.46875 130.96875 271.109375 130.96875 C 271.75 130.96875 272.269531 131.488281 272.269531 132.132812 C 272.269531 132.773438 271.75 133.292969 271.109375 133.292969 " fill-opacity="1" fill-rule="nonzero"/><path fill="#dbf3f5" d="M 271.109375 130.96875 C 270.46875 130.96875 269.949219 131.488281 269.949219 132.132812 C 269.949219 132.773438 270.46875 133.292969 271.109375 133.292969 C 271.75 133.292969 272.269531 132.773438 272.269531 132.132812 C 272.269531 131.488281 271.75 130.96875 271.109375 130.96875 " fill-opacity="1" fill-rule="nonzero"/><path fill="#5bb4e0" d="M 241.671875 154.855469 C 240.121094 154.855469 238.867188 156.113281 238.867188 157.664062 C 238.867188 159.21875 240.121094 160.476562 241.671875 160.476562 C 242.539062 160.476562 243.3125 160.082031 243.828125 159.464844 L 243.414062 158.546875 C 243.089844 159.183594 242.433594 159.621094 241.671875 159.621094 C 240.59375 159.621094 239.71875 158.746094 239.71875 157.664062 C 239.71875 156.585938 240.59375 155.710938 241.671875 155.710938 C 241.839844 155.710938 242.003906 155.730469 242.160156 155.773438 L 241.746094 154.855469 C 241.722656 154.855469 241.695312 154.855469 241.671875 154.855469 " fill-opacity="1" fill-rule="nonzero"/><path fill="#9adee8" d="M 241.746094 154.855469 L 242.160156 155.773438 C 243 155.992188 243.621094 156.753906 243.621094 157.664062 C 243.621094 157.984375 243.546875 158.28125 243.414062 158.546875 L 243.828125 159.464844 C 244.230469 158.976562 244.476562 158.347656 244.476562 157.664062 C 244.476562 156.136719 243.261719 154.894531 241.746094 154.855469 " fill-opacity="1" fill-rule="nonzero"/><path fill="#6bcfe4" d="M 241.671875 155.710938 C 240.59375 155.710938 239.71875 156.585938 239.71875 157.664062 C 239.71875 158.746094 240.59375 159.621094 241.671875 159.621094 C 242.433594 159.621094 243.089844 159.183594 243.414062 158.546875 L 242.160156 155.773438 C 242.003906 155.730469 241.839844 155.710938 241.671875 155.710938 M 241.671875 158.828125 C 241.03125 158.828125 240.511719 158.308594 240.511719 157.664062 C 240.511719 157.023438 241.03125 156.503906 241.671875 156.503906 C 242.3125 156.503906 242.832031 157.023438 242.832031 157.664062 C 242.832031 158.308594 242.3125 158.828125 241.671875 158.828125 " fill-opacity="1" fill-rule="nonzero"/><path fill="#a6e1de" d="M 242.160156 155.773438 L 243.414062 158.546875 C 243.546875 158.28125 243.621094 157.984375 243.621094 157.664062 C 243.621094 156.753906 243 155.992188 242.160156 155.773438 " fill-opacity="1" fill-rule="nonzero"/><path fill="#e2f6fd" d="M 241.671875 156.503906 C 241.03125 156.503906 240.511719 157.023438 240.511719 157.664062 C 240.511719 158.308594 241.03125 158.828125 241.671875 158.828125 C 242.3125 158.828125 242.832031 158.308594 242.832031 157.664062 C 242.832031 157.023438 242.3125 156.503906 241.671875 156.503906 " fill-opacity="1" fill-rule="nonzero"/><path fill="#9adee8" d="M 215.933594 101.003906 C 214.382812 101.003906 213.128906 102.261719 213.128906 103.8125 C 213.128906 105.367188 214.382812 106.625 215.933594 106.625 C 217.484375 106.625 218.738281 105.367188 218.738281 103.8125 C 218.738281 102.261719 217.484375 101.003906 215.933594 101.003906 M 215.933594 105.769531 C 214.855469 105.769531 213.984375 104.894531 213.984375 103.8125 C 213.984375 102.734375 214.855469 101.859375 215.933594 101.859375 C 217.011719 101.859375 217.882812 102.734375 217.882812 103.8125 C 217.882812 104.894531 217.011719 105.769531 215.933594 105.769531 " fill-opacity="1" fill-rule="nonzero"/><path fill="#a6e1de" d="M 215.933594 101.859375 C 214.855469 101.859375 213.984375 102.734375 213.984375 103.8125 C 213.984375 104.890625 214.855469 105.765625 215.933594 105.765625 C 217.011719 105.765625 217.882812 104.890625 217.882812 103.8125 C 217.882812 102.734375 217.011719 101.859375 215.933594 101.859375 M 215.933594 104.976562 C 215.292969 104.976562 214.773438 104.453125 214.773438 103.8125 C 214.773438 103.171875 215.292969 102.648438 215.933594 102.648438 C 216.574219 102.648438 217.09375 103.171875 217.09375 103.8125 C 217.09375 104.453125 216.574219 104.976562 215.933594 104.976562 " fill-opacity="1" fill-rule="nonzero"/><path fill="#eef9fd" d="M 215.933594 102.648438 C 215.292969 102.648438 214.773438 103.167969 214.773438 103.8125 C 214.773438 104.453125 215.292969 104.976562 215.933594 104.976562 C 216.574219 104.976562 217.09375 104.453125 217.09375 103.8125 C 217.09375 103.167969 216.574219 102.648438 215.933594 102.648438 " fill-opacity="1" fill-rule="nonzero"/><path fill="#9adee8" d="M 234.253906 126.507812 C 232.703125 126.507812 231.449219 127.769531 231.449219 129.320312 C 231.449219 129.617188 231.492188 129.902344 231.578125 130.171875 L 232.414062 129.976562 C 232.339844 129.769531 232.300781 129.550781 232.300781 129.320312 C 232.300781 128.242188 233.175781 127.363281 234.253906 127.363281 C 235.253906 127.363281 236.078125 128.121094 236.191406 129.089844 L 237.027344 128.894531 C 236.820312 127.546875 235.65625 126.507812 234.253906 126.507812 " fill-opacity="1" fill-rule="nonzero"/><path fill="#9adee8" d="M 237.027344 128.894531 L 236.191406 129.089844 C 236.199219 129.167969 236.203125 129.242188 236.203125 129.320312 C 236.203125 130.398438 235.328125 131.273438 234.253906 131.273438 C 233.40625 131.273438 232.683594 130.734375 232.414062 129.976562 L 231.578125 130.171875 C 231.9375 131.308594 233 132.128906 234.253906 132.128906 C 235.800781 132.128906 237.058594 130.875 237.058594 129.320312 C 237.058594 129.175781 237.046875 129.035156 237.027344 128.894531 " fill-opacity="1" fill-rule="nonzero"/><path fill="#a6e1de" d="M 234.253906 127.363281 C 233.175781 127.363281 232.300781 128.242188 232.300781 129.320312 C 232.300781 129.550781 232.339844 129.769531 232.414062 129.976562 L 233.191406 129.792969 C 233.128906 129.648438 233.089844 129.488281 233.089844 129.320312 C 233.089844 128.679688 233.613281 128.15625 234.253906 128.15625 C 234.878906 128.15625 235.386719 128.652344 235.410156 129.273438 L 236.191406 129.089844 C 236.078125 128.121094 235.253906 127.363281 234.253906 127.363281 " fill-opacity="1" fill-rule="nonzero"/><path fill="#a6e1de" d="M 236.191406 129.089844 L 235.410156 129.273438 C 235.414062 129.289062 235.414062 129.304688 235.414062 129.320312 C 235.414062 129.964844 234.894531 130.484375 234.253906 130.484375 C 233.78125 130.484375 233.375 130.199219 233.191406 129.792969 L 232.414062 129.976562 C 232.683594 130.734375 233.40625 131.273438 234.253906 131.273438 C 235.328125 131.273438 236.203125 130.398438 236.203125 129.320312 C 236.203125 129.242188 236.199219 129.167969 236.191406 129.089844 " fill-opacity="1" fill-rule="nonzero"/><path fill="#eef9fd" d="M 234.253906 128.15625 C 233.613281 128.15625 233.089844 128.679688 233.089844 129.320312 C 233.089844 129.488281 233.128906 129.648438 233.191406 129.792969 L 235.410156 129.273438 C 235.386719 128.652344 234.878906 128.15625 234.253906 128.15625 " fill-opacity="1" fill-rule="nonzero"/><path fill="#eef9fd" d="M 235.410156 129.273438 L 233.191406 129.792969 C 233.375 130.199219 233.78125 130.484375 234.253906 130.484375 C 234.894531 130.484375 235.414062 129.964844 235.414062 129.320312 C 235.414062 129.304688 235.414062 129.289062 235.410156 129.273438 " fill-opacity="1" fill-rule="nonzero"/><path fill="#ffffff" d="M 189.199219 93.824219 L 215.917969 104.039062 L 254.882812 94.804688 L 233.882812 129.511719 L 270.847656 132.328125 L 260.753906 182.796875 L 223.507812 206.601562 L 257.671875 216.808594 L 229.640625 238.136719 L 197.148438 210.304688 L 193.253906 173.738281 L 199.578125 145.601562 L 199.152344 145.503906 L 192.816406 173.710938 L 196.738281 210.523438 L 229.625 238.691406 L 258.613281 216.636719 L 224.539062 206.457031 L 261.140625 183.0625 L 271.367188 131.933594 L 234.621094 129.132812 L 255.789062 94.144531 L 215.949219 103.585938 L 189.351562 93.417969 L 189.199219 93.824219 " fill-opacity="1" fill-rule="nonzero"/><path fill="#ffffff" d="M 215.757812 103.941406 L 234.074219 129.449219 L 234.425781 129.195312 L 216.109375 103.6875 " fill-opacity="1" fill-rule="nonzero"/><path fill="#ffffff" d="M 241.601562 157.460938 L 194.003906 174.027344 L 194.144531 174.4375 L 241.742188 157.871094 " fill-opacity="1" fill-rule="nonzero"/><path fill="#ffffff" d="M 260.730469 182.910156 L 257.925781 216.703125 L 258.359375 216.738281 L 261.164062 182.945312 " fill-opacity="1" fill-rule="nonzero"/><path fill="#ffffff" d="M 223.8125 207.019531 L 229.421875 237.898438 L 229.847656 237.820312 L 224.238281 206.941406 " fill-opacity="1" fill-rule="nonzero"/><path fill="#ffffff" d="M 193.359375 173.871094 L 223.867188 206.675781 L 224.183594 206.378906 L 193.675781 173.574219 " fill-opacity="1" fill-rule="nonzero"/><path fill="#ffffff" d="M 241.90625 157.988281 L 223.820312 206.453125 L 224.226562 206.605469 L 242.3125 158.140625 " fill-opacity="1" fill-rule="nonzero"/><path fill="#ffffff" d="M 261.121094 182.796875 L 241.84375 157.535156 L 241.5 157.796875 L 260.777344 183.058594 " fill-opacity="1" fill-rule="nonzero"/><path fill="#ffffff" d="M 234.160156 129.125 L 199.273438 145.355469 L 199.457031 145.75 L 234.34375 129.515625 " fill-opacity="1" fill-rule="nonzero"/><path fill="#ffffff" d="M 270.96875 131.96875 L 241.964844 157.503906 L 242.25 157.828125 L 271.25 132.292969 " fill-opacity="1" fill-rule="nonzero"/><path fill="#ffffff" d="M 255.136719 94.558594 L 270.910156 132.214844 L 271.308594 132.046875 L 255.535156 94.390625 " fill-opacity="1" fill-rule="nonzero"/><path fill="#ffffff" d="M 215.300781 103.976562 L 199.585938 145.59375 L 199.988281 145.75 L 215.703125 104.132812 " fill-opacity="1" fill-rule="nonzero"/><path fill="#ffffff" d="M 189.0625 93.664062 L 199.574219 145.714844 L 200 145.628906 L 189.488281 93.578125 " fill-opacity="1" fill-rule="nonzero"/><path fill="#ffffff" d="M 242.167969 157.457031 L 199.847656 145.464844 L 199.730469 145.882812 L 242.046875 157.875 " fill-opacity="1" fill-rule="nonzero"/><path fill="#ffffff" d="M 234.042969 129.375 L 241.460938 157.71875 L 241.878906 157.609375 L 234.460938 129.265625 " fill-opacity="1" fill-rule="nonzero"/><path fill="#ffffff" d="M 223.996094 206.765625 L 197.386719 210.289062 L 197.441406 210.714844 L 224.050781 207.195312 " fill-opacity="1" fill-rule="nonzero"/><g fill="#000000" fill-opacity="1"><g transform="translate(74.721678, 287.834614)"><g><path d="M 3.46875 -22.609375 L 8.765625 -22.609375 L 8.765625 0 L 3.46875 0 Z M 6.140625 -26.328125 C 5.179688 -26.328125 4.378906 -26.628906 3.734375 -27.234375 C 3.085938 -27.835938 2.765625 -28.59375 2.765625 -29.5 C 2.765625 -30.40625 3.085938 -31.160156 3.734375 -31.765625 C 4.378906 -32.367188 5.179688 -32.671875 6.140625 -32.671875 C 7.097656 -32.671875 7.898438 -32.378906 8.546875 -31.796875 C 9.203125 -31.222656 9.53125 -30.5 9.53125 -29.625 C 9.53125 -28.695312 9.210938 -27.914062 8.578125 -27.28125 C 7.941406 -26.644531 7.128906 -26.328125 6.140625 -26.328125 Z M 6.140625 -26.328125 "/></g></g></g><g fill="#000000" fill-opacity="1"><g transform="translate(86.951097, 287.834614)"><g><path d="M 25.609375 -31.40625 L 25.609375 0 L 20.53125 0 L 20.53125 -2.921875 C 19.65625 -1.847656 18.570312 -1.039062 17.28125 -0.5 C 16 0.03125 14.582031 0.296875 13.03125 0.296875 C 10.863281 0.296875 8.910156 -0.179688 7.171875 -1.140625 C 5.441406 -2.097656 4.082031 -3.457031 3.09375 -5.21875 C 2.101562 -6.988281 1.609375 -9.015625 1.609375 -11.296875 C 1.609375 -13.585938 2.101562 -15.609375 3.09375 -17.359375 C 4.082031 -19.109375 5.441406 -20.460938 7.171875 -21.421875 C 8.910156 -22.378906 10.863281 -22.859375 13.03125 -22.859375 C 14.53125 -22.859375 15.898438 -22.601562 17.140625 -22.09375 C 18.378906 -21.582031 19.4375 -20.820312 20.3125 -19.8125 L 20.3125 -31.40625 Z M 13.671875 -4.234375 C 14.941406 -4.234375 16.082031 -4.519531 17.09375 -5.09375 C 18.113281 -5.675781 18.921875 -6.503906 19.515625 -7.578125 C 20.109375 -8.648438 20.40625 -9.890625 20.40625 -11.296875 C 20.40625 -12.710938 20.109375 -13.957031 19.515625 -15.03125 C 18.921875 -16.101562 18.113281 -16.925781 17.09375 -17.5 C 16.082031 -18.082031 14.941406 -18.375 13.671875 -18.375 C 12.398438 -18.375 11.253906 -18.082031 10.234375 -17.5 C 9.222656 -16.925781 8.421875 -16.101562 7.828125 -15.03125 C 7.234375 -13.957031 6.9375 -12.710938 6.9375 -11.296875 C 6.9375 -9.890625 7.234375 -8.648438 7.828125 -7.578125 C 8.421875 -6.503906 9.222656 -5.675781 10.234375 -5.09375 C 11.253906 -4.519531 12.398438 -4.234375 13.671875 -4.234375 Z M 13.671875 -4.234375 "/></g></g></g><g fill="#000000" fill-opacity="1"><g transform="translate(116.022407, 287.834614)"><g><path d="M 24.71875 -11.171875 C 24.71875 -10.804688 24.691406 -10.285156 24.640625 -9.609375 L 6.90625 -9.609375 C 7.207031 -7.941406 8.015625 -6.617188 9.328125 -5.640625 C 10.640625 -4.671875 12.269531 -4.1875 14.21875 -4.1875 C 16.707031 -4.1875 18.753906 -5.003906 20.359375 -6.640625 L 23.203125 -3.390625 C 22.179688 -2.171875 20.894531 -1.25 19.34375 -0.625 C 17.789062 -0.0078125 16.039062 0.296875 14.09375 0.296875 C 11.613281 0.296875 9.425781 -0.195312 7.53125 -1.1875 C 5.644531 -2.175781 4.1875 -3.550781 3.15625 -5.3125 C 2.125 -7.070312 1.609375 -9.066406 1.609375 -11.296875 C 1.609375 -13.503906 2.109375 -15.488281 3.109375 -17.25 C 4.109375 -19.007812 5.5 -20.382812 7.28125 -21.375 C 9.0625 -22.363281 11.066406 -22.859375 13.296875 -22.859375 C 15.492188 -22.859375 17.457031 -22.367188 19.1875 -21.390625 C 20.925781 -20.421875 22.28125 -19.050781 23.25 -17.28125 C 24.226562 -15.519531 24.71875 -13.484375 24.71875 -11.171875 Z M 13.296875 -18.625 C 11.597656 -18.625 10.160156 -18.125 8.984375 -17.125 C 7.816406 -16.125 7.109375 -14.789062 6.859375 -13.125 L 19.6875 -13.125 C 19.457031 -14.757812 18.765625 -16.082031 17.609375 -17.09375 C 16.453125 -18.113281 15.015625 -18.625 13.296875 -18.625 Z M 13.296875 -18.625 "/></g></g></g><g fill="#000000" fill-opacity="1"><g transform="translate(142.343153, 287.834614)"><g><path d="M 12.109375 -22.859375 C 15.429688 -22.859375 17.972656 -22.0625 19.734375 -20.46875 C 21.503906 -18.875 22.390625 -16.46875 22.390625 -13.25 L 22.390625 0 L 17.390625 0 L 17.390625 -2.75 C 16.742188 -1.757812 15.820312 -1.003906 14.625 -0.484375 C 13.425781 0.0351562 11.976562 0.296875 10.28125 0.296875 C 8.59375 0.296875 7.113281 0.0078125 5.84375 -0.5625 C 4.570312 -1.144531 3.585938 -1.953125 2.890625 -2.984375 C 2.203125 -4.015625 1.859375 -5.175781 1.859375 -6.46875 C 1.859375 -8.507812 2.613281 -10.140625 4.125 -11.359375 C 5.632812 -12.585938 8.015625 -13.203125 11.265625 -13.203125 L 17.09375 -13.203125 L 17.09375 -13.546875 C 17.09375 -15.128906 16.617188 -16.34375 15.671875 -17.1875 C 14.734375 -18.03125 13.332031 -18.453125 11.46875 -18.453125 C 10.195312 -18.453125 8.945312 -18.253906 7.71875 -17.859375 C 6.5 -17.460938 5.460938 -16.914062 4.609375 -16.21875 L 2.546875 -20.0625 C 3.722656 -20.96875 5.144531 -21.660156 6.8125 -22.140625 C 8.476562 -22.617188 10.242188 -22.859375 12.109375 -22.859375 Z M 11.390625 -3.5625 C 12.710938 -3.5625 13.890625 -3.863281 14.921875 -4.46875 C 15.953125 -5.070312 16.675781 -5.9375 17.09375 -7.0625 L 17.09375 -9.6875 L 11.640625 -9.6875 C 8.585938 -9.6875 7.0625 -8.6875 7.0625 -6.6875 C 7.0625 -5.726562 7.441406 -4.96875 8.203125 -4.40625 C 8.972656 -3.84375 10.035156 -3.5625 11.390625 -3.5625 Z M 11.390625 -3.5625 "/></g></g></g><g fill="#000000" fill-opacity="1"><g transform="translate(168.029152, 287.834614)"><g><path d="M 30.3125 -29.625 L 30.3125 0 L 24.796875 0 L 24.796875 -12.703125 L 9.484375 -12.703125 L 9.484375 0 L 3.984375 0 L 3.984375 -29.625 L 9.484375 -29.625 L 9.484375 -17.390625 L 24.796875 -17.390625 L 24.796875 -29.625 Z M 30.3125 -29.625 "/></g></g></g><g fill="#000000" fill-opacity="1"><g transform="translate(202.305372, 287.834614)"><g><path d="M 23.359375 0 L 17.3125 -8.671875 C 17.0625 -8.648438 16.679688 -8.640625 16.171875 -8.640625 L 9.484375 -8.640625 L 9.484375 0 L 3.984375 0 L 3.984375 -29.625 L 16.171875 -29.625 C 18.734375 -29.625 20.96875 -29.203125 22.875 -28.359375 C 24.78125 -27.515625 26.238281 -26.300781 27.25 -24.71875 C 28.269531 -23.132812 28.78125 -21.257812 28.78125 -19.09375 C 28.78125 -16.863281 28.238281 -14.941406 27.15625 -13.328125 C 26.070312 -11.722656 24.507812 -10.523438 22.46875 -9.734375 L 29.296875 0 Z M 23.234375 -19.09375 C 23.234375 -20.976562 22.613281 -22.425781 21.375 -23.4375 C 20.132812 -24.457031 18.316406 -24.96875 15.921875 -24.96875 L 9.484375 -24.96875 L 9.484375 -13.15625 L 15.921875 -13.15625 C 18.316406 -13.15625 20.132812 -13.671875 21.375 -14.703125 C 22.613281 -15.734375 23.234375 -17.195312 23.234375 -19.09375 Z M 23.234375 -19.09375 "/></g></g></g><g fill="#000000" fill-opacity="1"><g transform="translate(233.238601, 287.834614)"><g><path d="M 31.203125 0 L 31.15625 -19.640625 L 21.421875 -3.390625 L 18.96875 -3.390625 L 9.234375 -19.390625 L 9.234375 0 L 3.984375 0 L 3.984375 -29.625 L 8.515625 -29.625 L 20.28125 -9.984375 L 31.828125 -29.625 L 36.359375 -29.625 L 36.40625 0 Z M 31.203125 0 "/></g></g></g><g fill="#000000" fill-opacity="1"><g transform="translate(273.650696, 287.834614)"><g><path d="M 13.15625 0.421875 C 10.875 0.421875 8.664062 0.0976562 6.53125 -0.546875 C 4.40625 -1.203125 2.722656 -2.0625 1.484375 -3.125 L 3.390625 -7.40625 C 4.597656 -6.445312 6.082031 -5.660156 7.84375 -5.046875 C 9.613281 -4.441406 11.382812 -4.140625 13.15625 -4.140625 C 15.363281 -4.140625 17.007812 -4.492188 18.09375 -5.203125 C 19.175781 -5.910156 19.71875 -6.84375 19.71875 -8 C 19.71875 -8.84375 19.414062 -9.539062 18.8125 -10.09375 C 18.207031 -10.644531 17.4375 -11.078125 16.5 -11.390625 C 15.570312 -11.703125 14.304688 -12.050781 12.703125 -12.4375 C 10.441406 -12.976562 8.613281 -13.515625 7.21875 -14.046875 C 5.820312 -14.585938 4.617188 -15.425781 3.609375 -16.5625 C 2.609375 -17.707031 2.109375 -19.253906 2.109375 -21.203125 C 2.109375 -22.835938 2.550781 -24.328125 3.4375 -25.671875 C 4.332031 -27.015625 5.675781 -28.078125 7.46875 -28.859375 C 9.257812 -29.648438 11.453125 -30.046875 14.046875 -30.046875 C 15.859375 -30.046875 17.640625 -29.820312 19.390625 -29.375 C 21.140625 -28.925781 22.648438 -28.273438 23.921875 -27.421875 L 22.1875 -23.15625 C 20.882812 -23.914062 19.523438 -24.492188 18.109375 -24.890625 C 16.703125 -25.285156 15.335938 -25.484375 14.015625 -25.484375 C 11.835938 -25.484375 10.21875 -25.113281 9.15625 -24.375 C 8.101562 -23.644531 7.578125 -22.671875 7.578125 -21.453125 C 7.578125 -20.609375 7.878906 -19.914062 8.484375 -19.375 C 9.085938 -18.84375 9.851562 -18.421875 10.78125 -18.109375 C 11.71875 -17.804688 12.992188 -17.457031 14.609375 -17.0625 C 16.804688 -16.550781 18.609375 -16.019531 20.015625 -15.46875 C 21.429688 -14.914062 22.640625 -14.078125 23.640625 -12.953125 C 24.640625 -11.828125 25.140625 -10.300781 25.140625 -8.375 C 25.140625 -6.738281 24.691406 -5.257812 23.796875 -3.9375 C 22.910156 -2.613281 21.566406 -1.554688 19.765625 -0.765625 C 17.960938 0.0234375 15.757812 0.421875 13.15625 0.421875 Z M 13.15625 0.421875 "/></g></g></g><g fill="#000000" fill-opacity="1"><g transform="translate(107.800663, 306.19492)"><g><path d="M 2.90625 0.109375 C 2.382812 0.109375 1.882812 0.0390625 1.40625 -0.09375 C 0.925781 -0.238281 0.546875 -0.421875 0.265625 -0.640625 L 0.765625 -1.765625 C 1.046875 -1.566406 1.375 -1.40625 1.75 -1.28125 C 2.132812 -1.15625 2.519531 -1.09375 2.90625 -1.09375 C 3.332031 -1.09375 3.644531 -1.15625 3.84375 -1.28125 C 4.050781 -1.40625 4.15625 -1.570312 4.15625 -1.78125 C 4.15625 -1.9375 4.09375 -2.066406 3.96875 -2.171875 C 3.851562 -2.273438 3.703125 -2.359375 3.515625 -2.421875 C 3.328125 -2.484375 3.070312 -2.550781 2.75 -2.625 C 2.257812 -2.738281 1.851562 -2.851562 1.53125 -2.96875 C 1.21875 -3.09375 0.945312 -3.28125 0.71875 -3.53125 C 0.5 -3.789062 0.390625 -4.140625 0.390625 -4.578125 C 0.390625 -4.953125 0.488281 -5.289062 0.6875 -5.59375 C 0.894531 -5.90625 1.203125 -6.148438 1.609375 -6.328125 C 2.023438 -6.503906 2.53125 -6.59375 3.125 -6.59375 C 3.539062 -6.59375 3.941406 -6.539062 4.328125 -6.4375 C 4.722656 -6.34375 5.070312 -6.203125 5.375 -6.015625 L 4.90625 -4.890625 C 4.3125 -5.222656 3.710938 -5.390625 3.109375 -5.390625 C 2.691406 -5.390625 2.378906 -5.320312 2.171875 -5.1875 C 1.972656 -5.050781 1.875 -4.875 1.875 -4.65625 C 1.875 -4.425781 1.988281 -4.257812 2.21875 -4.15625 C 2.457031 -4.050781 2.816406 -3.945312 3.296875 -3.84375 C 3.785156 -3.71875 4.1875 -3.597656 4.5 -3.484375 C 4.8125 -3.367188 5.082031 -3.179688 5.3125 -2.921875 C 5.539062 -2.671875 5.65625 -2.332031 5.65625 -1.90625 C 5.65625 -1.53125 5.550781 -1.1875 5.34375 -0.875 C 5.132812 -0.570312 4.820312 -0.332031 4.40625 -0.15625 C 4 0.0195312 3.5 0.109375 2.90625 0.109375 Z M 2.90625 0.109375 "/></g></g></g><g fill="#000000" fill-opacity="1"><g transform="translate(115.624236, 306.19492)"><g><path d="M 6.671875 0 L 6.65625 -3.890625 L 4.75 -0.6875 L 4.078125 -0.6875 L 2.171875 -3.8125 L 2.171875 0 L 0.765625 0 L 0.765625 -6.484375 L 2.015625 -6.484375 L 4.4375 -2.453125 L 6.828125 -6.484375 L 8.0625 -6.484375 L 8.078125 0 Z M 6.671875 0 "/></g></g></g><g fill="#000000" fill-opacity="1"><g transform="translate(126.386294, 306.19492)"><g><path d="M 5.046875 -1.390625 L 2.03125 -1.390625 L 1.453125 0 L -0.078125 0 L 2.8125 -6.484375 L 4.296875 -6.484375 L 7.1875 0 L 5.609375 0 Z M 4.5625 -2.53125 L 3.546875 -5.015625 L 2.515625 -2.53125 Z M 4.5625 -2.53125 "/></g></g></g><g fill="#000000" fill-opacity="1"><g transform="translate(135.396384, 306.19492)"><g><path d="M 4.90625 0 L 3.65625 -1.8125 L 2.265625 -1.8125 L 2.265625 0 L 0.765625 0 L 0.765625 -6.484375 L 3.578125 -6.484375 C 4.148438 -6.484375 4.644531 -6.382812 5.0625 -6.1875 C 5.488281 -6 5.816406 -5.726562 6.046875 -5.375 C 6.273438 -5.03125 6.390625 -4.613281 6.390625 -4.125 C 6.390625 -3.644531 6.273438 -3.226562 6.046875 -2.875 C 5.816406 -2.53125 5.488281 -2.265625 5.0625 -2.078125 L 6.515625 0 Z M 4.875 -4.125 C 4.875 -4.488281 4.753906 -4.769531 4.515625 -4.96875 C 4.285156 -5.164062 3.945312 -5.265625 3.5 -5.265625 L 2.265625 -5.265625 L 2.265625 -3 L 3.5 -3 C 3.945312 -3 4.285156 -3.097656 4.515625 -3.296875 C 4.753906 -3.492188 4.875 -3.769531 4.875 -4.125 Z M 4.875 -4.125 "/></g></g></g><g fill="#000000" fill-opacity="1"><g transform="translate(144.11912, 306.19492)"><g><path d="M 2.109375 -5.265625 L 0.03125 -5.265625 L 0.03125 -6.484375 L 5.6875 -6.484375 L 5.6875 -5.265625 L 3.609375 -5.265625 L 3.609375 0 L 2.109375 0 Z M 2.109375 -5.265625 "/></g></g></g><g fill="#000000" fill-opacity="1"><g transform="translate(151.757298, 306.19492)"><g/></g></g><g fill="#000000" fill-opacity="1"><g transform="translate(156.290148, 306.19492)"><g><path d="M 6.71875 -6.484375 L 6.71875 0 L 5.21875 0 L 5.21875 -2.65625 L 2.265625 -2.65625 L 2.265625 0 L 0.765625 0 L 0.765625 -6.484375 L 2.265625 -6.484375 L 2.265625 -3.921875 L 5.21875 -3.921875 L 5.21875 -6.484375 Z M 6.71875 -6.484375 "/></g></g></g><g fill="#000000" fill-opacity="1"><g transform="translate(165.68957, 306.19492)"><g><path d="M 4.90625 0 L 3.65625 -1.8125 L 2.265625 -1.8125 L 2.265625 0 L 0.765625 0 L 0.765625 -6.484375 L 3.578125 -6.484375 C 4.148438 -6.484375 4.644531 -6.382812 5.0625 -6.1875 C 5.488281 -6 5.816406 -5.726562 6.046875 -5.375 C 6.273438 -5.03125 6.390625 -4.613281 6.390625 -4.125 C 6.390625 -3.644531 6.273438 -3.226562 6.046875 -2.875 C 5.816406 -2.53125 5.488281 -2.265625 5.0625 -2.078125 L 6.515625 0 Z M 4.875 -4.125 C 4.875 -4.488281 4.753906 -4.769531 4.515625 -4.96875 C 4.285156 -5.164062 3.945312 -5.265625 3.5 -5.265625 L 2.265625 -5.265625 L 2.265625 -3 L 3.5 -3 C 3.945312 -3 4.285156 -3.097656 4.515625 -3.296875 C 4.753906 -3.492188 4.875 -3.769531 4.875 -4.125 Z M 4.875 -4.125 "/></g></g></g><g fill="#000000" fill-opacity="1"><g transform="translate(174.412307, 306.19492)"><g><path d="M 6.671875 0 L 6.65625 -3.890625 L 4.75 -0.6875 L 4.078125 -0.6875 L 2.171875 -3.8125 L 2.171875 0 L 0.765625 0 L 0.765625 -6.484375 L 2.015625 -6.484375 L 4.4375 -2.453125 L 6.828125 -6.484375 L 8.0625 -6.484375 L 8.078125 0 Z M 6.671875 0 "/></g></g></g><g fill="#000000" fill-opacity="1"><g transform="translate(185.174364, 306.19492)"><g><path d="M 2.90625 0.109375 C 2.382812 0.109375 1.882812 0.0390625 1.40625 -0.09375 C 0.925781 -0.238281 0.546875 -0.421875 0.265625 -0.640625 L 0.765625 -1.765625 C 1.046875 -1.566406 1.375 -1.40625 1.75 -1.28125 C 2.132812 -1.15625 2.519531 -1.09375 2.90625 -1.09375 C 3.332031 -1.09375 3.644531 -1.15625 3.84375 -1.28125 C 4.050781 -1.40625 4.15625 -1.570312 4.15625 -1.78125 C 4.15625 -1.9375 4.09375 -2.066406 3.96875 -2.171875 C 3.851562 -2.273438 3.703125 -2.359375 3.515625 -2.421875 C 3.328125 -2.484375 3.070312 -2.550781 2.75 -2.625 C 2.257812 -2.738281 1.851562 -2.851562 1.53125 -2.96875 C 1.21875 -3.09375 0.945312 -3.28125 0.71875 -3.53125 C 0.5 -3.789062 0.390625 -4.140625 0.390625 -4.578125 C 0.390625 -4.953125 0.488281 -5.289062 0.6875 -5.59375 C 0.894531 -5.90625 1.203125 -6.148438 1.609375 -6.328125 C 2.023438 -6.503906 2.53125 -6.59375 3.125 -6.59375 C 3.539062 -6.59375 3.941406 -6.539062 4.328125 -6.4375 C 4.722656 -6.34375 5.070312 -6.203125 5.375 -6.015625 L 4.90625 -4.890625 C 4.3125 -5.222656 3.710938 -5.390625 3.109375 -5.390625 C 2.691406 -5.390625 2.378906 -5.320312 2.171875 -5.1875 C 1.972656 -5.050781 1.875 -4.875 1.875 -4.65625 C 1.875 -4.425781 1.988281 -4.257812 2.21875 -4.15625 C 2.457031 -4.050781 2.816406 -3.945312 3.296875 -3.84375 C 3.785156 -3.71875 4.1875 -3.597656 4.5 -3.484375 C 4.8125 -3.367188 5.082031 -3.179688 5.3125 -2.921875 C 5.539062 -2.671875 5.65625 -2.332031 5.65625 -1.90625 C 5.65625 -1.53125 5.550781 -1.1875 5.34375 -0.875 C 5.132812 -0.570312 4.820312 -0.332031 4.40625 -0.15625 C 4 0.0195312 3.5 0.109375 2.90625 0.109375 Z M 2.90625 0.109375 "/></g></g></g><g fill="#000000" fill-opacity="1"><g transform="translate(192.997938, 306.19492)"><g/></g></g><g fill="#000000" fill-opacity="1"><g transform="translate(197.530788, 306.19492)"><g><path d="M 2.90625 0.109375 C 2.382812 0.109375 1.882812 0.0390625 1.40625 -0.09375 C 0.925781 -0.238281 0.546875 -0.421875 0.265625 -0.640625 L 0.765625 -1.765625 C 1.046875 -1.566406 1.375 -1.40625 1.75 -1.28125 C 2.132812 -1.15625 2.519531 -1.09375 2.90625 -1.09375 C 3.332031 -1.09375 3.644531 -1.15625 3.84375 -1.28125 C 4.050781 -1.40625 4.15625 -1.570312 4.15625 -1.78125 C 4.15625 -1.9375 4.09375 -2.066406 3.96875 -2.171875 C 3.851562 -2.273438 3.703125 -2.359375 3.515625 -2.421875 C 3.328125 -2.484375 3.070312 -2.550781 2.75 -2.625 C 2.257812 -2.738281 1.851562 -2.851562 1.53125 -2.96875 C 1.21875 -3.09375 0.945312 -3.28125 0.71875 -3.53125 C 0.5 -3.789062 0.390625 -4.140625 0.390625 -4.578125 C 0.390625 -4.953125 0.488281 -5.289062 0.6875 -5.59375 C 0.894531 -5.90625 1.203125 -6.148438 1.609375 -6.328125 C 2.023438 -6.503906 2.53125 -6.59375 3.125 -6.59375 C 3.539062 -6.59375 3.941406 -6.539062 4.328125 -6.4375 C 4.722656 -6.34375 5.070312 -6.203125 5.375 -6.015625 L 4.90625 -4.890625 C 4.3125 -5.222656 3.710938 -5.390625 3.109375 -5.390625 C 2.691406 -5.390625 2.378906 -5.320312 2.171875 -5.1875 C 1.972656 -5.050781 1.875 -4.875 1.875 -4.65625 C 1.875 -4.425781 1.988281 -4.257812 2.21875 -4.15625 C 2.457031 -4.050781 2.816406 -3.945312 3.296875 -3.84375 C 3.785156 -3.71875 4.1875 -3.597656 4.5 -3.484375 C 4.8125 -3.367188 5.082031 -3.179688 5.3125 -2.921875 C 5.539062 -2.671875 5.65625 -2.332031 5.65625 -1.90625 C 5.65625 -1.53125 5.550781 -1.1875 5.34375 -0.875 C 5.132812 -0.570312 4.820312 -0.332031 4.40625 -0.15625 C 4 0.0195312 3.5 0.109375 2.90625 0.109375 Z M 2.90625 0.109375 "/></g></g></g><g fill="#000000" fill-opacity="1"><g transform="translate(205.354361, 306.19492)"><g><path d="M 3.90625 0.109375 C 3.238281 0.109375 2.632812 -0.0351562 2.09375 -0.328125 C 1.550781 -0.617188 1.125 -1.015625 0.8125 -1.515625 C 0.507812 -2.023438 0.359375 -2.601562 0.359375 -3.25 C 0.359375 -3.882812 0.507812 -4.453125 0.8125 -4.953125 C 1.125 -5.460938 1.550781 -5.863281 2.09375 -6.15625 C 2.632812 -6.445312 3.238281 -6.59375 3.90625 -6.59375 C 4.582031 -6.59375 5.1875 -6.445312 5.71875 -6.15625 C 6.257812 -5.863281 6.679688 -5.460938 6.984375 -4.953125 C 7.296875 -4.453125 7.453125 -3.882812 7.453125 -3.25 C 7.453125 -2.601562 7.296875 -2.023438 6.984375 -1.515625 C 6.679688 -1.015625 6.257812 -0.617188 5.71875 -0.328125 C 5.1875 -0.0351562 4.582031 0.109375 3.90625 0.109375 Z M 3.90625 -1.171875 C 4.289062 -1.171875 4.632812 -1.257812 4.9375 -1.4375 C 5.25 -1.613281 5.492188 -1.859375 5.671875 -2.171875 C 5.847656 -2.484375 5.9375 -2.84375 5.9375 -3.25 C 5.9375 -3.644531 5.847656 -4 5.671875 -4.3125 C 5.492188 -4.632812 5.25 -4.878906 4.9375 -5.046875 C 4.632812 -5.222656 4.289062 -5.3125 3.90625 -5.3125 C 3.519531 -5.3125 3.171875 -5.222656 2.859375 -5.046875 C 2.554688 -4.878906 2.316406 -4.632812 2.140625 -4.3125 C 1.960938 -4 1.875 -3.644531 1.875 -3.25 C 1.875 -2.84375 1.960938 -2.484375 2.140625 -2.171875 C 2.316406 -1.859375 2.554688 -1.613281 2.859375 -1.4375 C 3.171875 -1.257812 3.519531 -1.171875 3.90625 -1.171875 Z M 3.90625 -1.171875 "/></g></g></g><g fill="#000000" fill-opacity="1"><g transform="translate(215.087482, 306.19492)"><g><path d="M 2.265625 -5.28125 L 2.265625 -3.5625 L 5.265625 -3.5625 L 5.265625 -2.359375 L 2.265625 -2.359375 L 2.265625 0 L 0.765625 0 L 0.765625 -6.484375 L 5.671875 -6.484375 L 5.671875 -5.28125 Z M 2.265625 -5.28125 "/></g></g></g><g fill="#000000" fill-opacity="1"><g transform="translate(222.920332, 306.19492)"><g><path d="M 2.109375 -5.265625 L 0.03125 -5.265625 L 0.03125 -6.484375 L 5.6875 -6.484375 L 5.6875 -5.265625 L 3.609375 -5.265625 L 3.609375 0 L 2.109375 0 Z M 2.109375 -5.265625 "/></g></g></g><g fill="#000000" fill-opacity="1"><g transform="translate(230.55851, 306.19492)"><g><path d="M 10.578125 -6.484375 L 8.453125 0 L 6.84375 0 L 5.40625 -4.390625 L 3.9375 0 L 2.328125 0 L 0.203125 -6.484375 L 1.765625 -6.484375 L 3.21875 -1.921875 L 4.75 -6.484375 L 6.140625 -6.484375 L 7.625 -1.890625 L 9.140625 -6.484375 Z M 10.578125 -6.484375 "/></g></g></g><g fill="#000000" fill-opacity="1"><g transform="translate(243.248656, 306.19492)"><g><path d="M 5.046875 -1.390625 L 2.03125 -1.390625 L 1.453125 0 L -0.078125 0 L 2.8125 -6.484375 L 4.296875 -6.484375 L 7.1875 0 L 5.609375 0 Z M 4.5625 -2.53125 L 3.546875 -5.015625 L 2.515625 -2.53125 Z M 4.5625 -2.53125 "/></g></g></g><g fill="#000000" fill-opacity="1"><g transform="translate(252.258745, 306.19492)"><g><path d="M 4.90625 0 L 3.65625 -1.8125 L 2.265625 -1.8125 L 2.265625 0 L 0.765625 0 L 0.765625 -6.484375 L 3.578125 -6.484375 C 4.148438 -6.484375 4.644531 -6.382812 5.0625 -6.1875 C 5.488281 -6 5.816406 -5.726562 6.046875 -5.375 C 6.273438 -5.03125 6.390625 -4.613281 6.390625 -4.125 C 6.390625 -3.644531 6.273438 -3.226562 6.046875 -2.875 C 5.816406 -2.53125 5.488281 -2.265625 5.0625 -2.078125 L 6.515625 0 Z M 4.875 -4.125 C 4.875 -4.488281 4.753906 -4.769531 4.515625 -4.96875 C 4.285156 -5.164062 3.945312 -5.265625 3.5 -5.265625 L 2.265625 -5.265625 L 2.265625 -3 L 3.5 -3 C 3.945312 -3 4.285156 -3.097656 4.515625 -3.296875 C 4.753906 -3.492188 4.875 -3.769531 4.875 -4.125 Z M 4.875 -4.125 "/></g></g></g><g fill="#000000" fill-opacity="1"><g transform="translate(260.981482, 306.19492)"><g><path d="M 5.796875 -1.203125 L 5.796875 0 L 0.765625 0 L 0.765625 -6.484375 L 5.671875 -6.484375 L 5.671875 -5.28125 L 2.265625 -5.28125 L 2.265625 -3.875 L 5.265625 -3.875 L 5.265625 -2.703125 L 2.265625 -2.703125 L 2.265625 -1.203125 Z M 5.796875 -1.203125 "/></g></g></g></svg>